<svg width="538" height="172" viewBox="0 0 538 172" fill="none" xmlns="http://www.w3.org/2000/svg">
<path d="M12 22C12 18.6863 14.6863 16 18 16H515C518.314 16 521 18.6863 521 22V149C521 152.314 518.314 155 515 155H18C14.6863 155 12 152.314 12 149V22Z" fill="#5E5E5E"/>
<mask id="path-2-outside-1_140_12" maskUnits="userSpaceOnUse" x="0" y="0" width="538" height="172" fill="black">
<rect fill="white" width="538" height="172"/>
<path d="M21 27C21 23.6863 23.6863 21 27 21H511C514.314 21 517 23.6863 517 27V145C517 148.314 514.314 151 511 151H27C23.6863 151 21 148.314 21 145V27Z"/>
</mask>
<path d="M0 27C0 12.0883 12.0883 0 27 0H511C525.912 0 538 12.0883 538 27L496 42H42L0 27ZM538 145C538 159.912 525.912 172 511 172H27C12.0883 172 0 159.912 0 145L42 130H496L538 145ZM27 172C12.0883 172 0 159.912 0 145V27C0 12.0883 12.0883 0 27 0L42 42V130L27 172ZM511 0C525.912 0 538 12.0883 538 27V145C538 159.912 525.912 172 511 172L496 130V42L511 0Z" fill="#373737" mask="url(#path-2-outside-1_140_12)"/>
<path d="M363.842 47.6762H355.069L353.168 53.1505H350.6L358.165 33H361.052L368.631 53.1505H365.771L363.842 47.6762ZM363.078 45.5717L360.385 37.7041L359.594 34.8981H359.317L358.525 37.7041L355.805 45.5717H363.078Z" fill="white"/>
<path d="M375.488 53.1505H372.767V33H375.488V53.1505Z" fill="white"/>
<path d="M395.17 50.9773C394.939 51.1698 394.657 51.4083 394.324 51.6925C394 51.9676 393.63 52.2335 393.213 52.4903C392.806 52.747 392.357 52.9671 391.867 53.1505C391.386 53.3339 390.872 53.4256 390.326 53.4256C389.836 53.4256 389.354 53.3385 388.882 53.1643C388.42 52.9992 388.008 52.7516 387.647 52.4215C387.286 52.0822 386.995 51.665 386.773 51.1698C386.56 50.6747 386.453 50.1062 386.453 49.4643C386.453 49.07 386.5 48.6711 386.592 48.2676C386.694 47.8642 386.86 47.479 387.092 47.1122C387.323 46.7363 387.624 46.3878 387.994 46.0669C388.373 45.7368 388.836 45.4525 389.382 45.2141C389.937 44.9665 390.59 44.7739 391.339 44.6364C392.089 44.4989 392.949 44.4301 393.921 44.4301H395.17V43.1647C395.17 42.7429 395.096 42.3623 394.948 42.023C394.8 41.6837 394.592 41.3949 394.324 41.1565C394.065 40.9089 393.75 40.7209 393.38 40.5925C393.019 40.455 392.616 40.3862 392.172 40.3862C391.839 40.3862 391.483 40.4229 391.103 40.4963C390.733 40.5696 390.358 40.6751 389.979 40.8126C389.609 40.9502 389.253 41.1106 388.91 41.294C388.568 41.4774 388.267 41.6792 388.008 41.8992L387.758 41.7617L387.203 39.7535C387.74 39.4601 388.258 39.2217 388.758 39.0383C389.257 38.8457 389.734 38.6944 390.187 38.5844C390.65 38.4743 391.089 38.401 391.506 38.3643C391.922 38.3185 392.32 38.2955 392.7 38.2955C394.43 38.2955 395.712 38.6531 396.545 39.3684C397.387 40.0745 397.808 41.1381 397.808 42.5595V49.7394C397.808 49.8586 397.817 50.0053 397.835 50.1795C397.854 50.3446 397.896 50.505 397.96 50.6609C398.034 50.8168 398.136 50.9498 398.266 51.0598C398.405 51.1698 398.59 51.2249 398.821 51.2249C398.951 51.2249 399.122 51.2065 399.335 51.1698C399.547 51.124 399.76 51.0506 399.973 50.9498V52.4078C399.529 52.7104 399.08 52.9579 398.627 53.1505C398.182 53.3339 397.752 53.4256 397.336 53.4256C396.956 53.4256 396.642 53.3477 396.392 53.1918C396.151 53.0451 395.948 52.8525 395.781 52.6141C395.624 52.3757 395.499 52.1143 395.406 51.8301C395.314 51.5366 395.235 51.2524 395.17 50.9773ZM395.17 46.0256H394.115C393.033 46.0256 392.168 46.1036 391.52 46.2594C390.881 46.4062 390.391 46.6079 390.048 46.8646C389.715 47.1122 389.493 47.4011 389.382 47.7312C389.28 48.0613 389.229 48.4052 389.229 48.7628C389.229 49.1479 389.285 49.4918 389.396 49.7944C389.507 50.097 389.66 50.3583 389.854 50.5784C390.058 50.7893 390.298 50.9498 390.576 51.0598C390.853 51.1698 391.154 51.2249 391.478 51.2249C391.728 51.2249 391.982 51.1974 392.242 51.1423C392.51 51.0781 392.792 50.9727 393.088 50.826C393.394 50.6701 393.713 50.4638 394.046 50.207C394.388 49.9503 394.763 49.6202 395.17 49.2167V46.0256Z" fill="white"/>
<path d="M403.193 38.5706H405.248L405.664 42.9446C405.784 42.7153 405.909 42.4815 406.039 42.2431C406.178 41.9955 406.312 41.7571 406.441 41.5279C406.58 41.2986 406.714 41.0831 406.844 40.8814C406.974 40.6797 407.089 40.5054 407.191 40.3587C407.395 40.0745 407.621 39.8085 407.871 39.561C408.13 39.3042 408.408 39.0841 408.704 38.9007C409 38.7082 409.315 38.5614 409.648 38.4606C409.981 38.3505 410.337 38.2955 410.717 38.2955C410.985 38.2955 411.24 38.3276 411.48 38.3918C411.721 38.4468 411.92 38.5431 412.077 38.6807L411.799 41.129C411.633 41.0831 411.466 41.0556 411.3 41.0464C411.142 41.0281 410.985 41.0189 410.828 41.0189C410.171 41.0189 409.597 41.1244 409.107 41.3353C408.625 41.5462 408.19 41.835 407.802 42.2018C407.422 42.5595 407.075 42.9813 406.761 43.4673C406.455 43.9533 406.145 44.4759 405.831 45.0353V53.1505H403.193V38.5706Z" fill="white"/>
<path d="M416.921 40.6613H413.951L414.173 39.3134C414.895 39.1667 415.473 38.9833 415.908 38.7632C416.343 38.5339 416.699 38.2497 416.977 37.9104C417.264 37.5711 417.5 37.1631 417.685 36.6862C417.879 36.2002 418.097 35.6225 418.337 34.9532H419.559V38.5706H424.889L424.334 40.6613H419.559V48.804C419.559 49.2442 419.623 49.6202 419.753 49.9319C419.892 50.2345 420.081 50.4821 420.322 50.6747C420.563 50.8672 420.854 51.0094 421.197 51.1011C421.539 51.1836 421.918 51.2249 422.335 51.2249C422.76 51.2249 423.181 51.1882 423.598 51.1148C424.024 51.0323 424.426 50.9223 424.806 50.7847V52.2702C424.223 52.6462 423.607 52.935 422.959 53.1368C422.321 53.3293 421.668 53.4256 421.002 53.4256C420.382 53.4256 419.822 53.3385 419.323 53.1643C418.823 52.99 418.393 52.7379 418.032 52.4078C417.68 52.0776 417.407 51.6696 417.213 51.1836C417.018 50.6884 416.921 50.1245 416.921 49.4918V40.6613Z" fill="white"/>
<path fill-rule="evenodd" clip-rule="evenodd" d="M354.043 60.4276C360.429 60.4276 365.893 64.3402 368.127 69.8783C368.203 70.0673 368.276 70.2583 368.344 70.451H419.572C427.417 70.451 433.87 76.3551 434.654 83.9237C440.545 86.8694 444.138 93.4936 442.673 100.429L437.258 126.055C435.787 133.015 429.594 138 422.418 138H351.161C342.788 138 336 131.274 336 122.976V75.4513C336 73.4822 336.382 71.6015 337.077 69.8783C339.311 64.3402 344.775 60.4276 351.161 60.4276H354.043ZM426.679 90.5016V90.3079H359.649C356.26 90.3079 353.343 92.6788 352.679 95.9718L347.517 121.598C346.64 125.955 350.003 130.019 354.487 130.019H419.572C419.784 130.019 419.994 130.009 420.201 129.991L420.196 130.019H422.418C425.782 130.019 428.685 127.682 429.374 124.42L434.789 98.7936C435.714 94.4185 432.344 90.3079 427.833 90.3079H426.711L426.679 90.5016ZM419.572 78.4324C422.355 78.4324 424.765 80.0176 425.931 82.3266H359.649C352.42 82.3266 346.196 87.3844 344.781 94.4094L344.054 98.015V74.5123C344.054 69.7154 347.979 65.8268 352.82 65.8268C357.66 65.8268 361.585 69.7154 361.585 74.5123V78.4324H419.572Z" fill="#373737"/>
<path d="M336.056 70.451H336V71.747C336 71.3104 336.019 70.8782 336.056 70.451Z" fill="#373737"/>
<path d="M106.948 31.9585H113.819C115.615 31.9585 117.188 32.2085 118.539 32.7086C119.899 33.1994 121.033 33.8708 121.939 34.7228C122.846 35.5748 123.526 36.5796 123.98 37.7372C124.443 38.8947 124.674 40.131 124.674 41.4461C124.674 42.2981 124.577 43.1593 124.382 44.0298C124.188 44.891 123.887 45.7245 123.48 46.5302C123.082 47.3359 122.578 48.0906 121.967 48.7944C121.356 49.4982 120.63 50.1095 119.788 50.628C118.955 51.1466 118.002 51.5587 116.929 51.8644C115.864 52.1607 114.68 52.3089 113.375 52.3089H106.948V31.9585ZM109.669 50.1558H113.875C115.217 50.1558 116.387 49.9428 117.387 49.5168C118.386 49.0815 119.21 48.4981 119.857 47.7665C120.514 47.0256 121.005 46.1644 121.329 45.1828C121.653 44.1919 121.815 43.1361 121.815 42.0156C121.815 40.7932 121.625 39.6958 121.245 38.7234C120.875 37.7418 120.329 36.913 119.608 36.2369C118.895 35.5516 118.011 35.0284 116.956 34.6672C115.911 34.2968 114.717 34.1116 113.375 34.1116H109.669V50.1558Z" fill="white"/>
<path d="M140.789 51.0587C140.438 51.3087 140.031 51.531 139.568 51.7254C139.114 51.9107 138.642 52.0681 138.152 52.1977C137.662 52.3274 137.167 52.4246 136.667 52.4894C136.176 52.5543 135.718 52.5867 135.293 52.5867C134.349 52.5867 133.451 52.4293 132.6 52.1144C131.748 51.7995 131.004 51.3365 130.365 50.7253C129.727 50.1141 129.218 49.3593 128.838 48.461C128.459 47.5535 128.269 46.5117 128.269 45.3356C128.269 44.1224 128.468 43.0204 128.866 42.0295C129.273 41.0386 129.814 40.1959 130.49 39.5013C131.165 38.7975 131.943 38.2558 132.822 37.8761C133.71 37.4964 134.64 37.3065 135.612 37.3065C136.398 37.3065 137.13 37.4408 137.805 37.7094C138.49 37.9687 139.082 38.3623 139.582 38.8901C140.091 39.418 140.489 40.0801 140.775 40.8765C141.062 41.6637 141.206 42.5851 141.206 43.6409C141.206 43.8538 141.197 44.1085 141.178 44.4049C141.16 44.7012 141.123 45.0114 141.067 45.3356H131.017C131.017 46.132 131.156 46.8451 131.434 47.4748C131.721 48.0952 132.119 48.6231 132.628 49.0584C133.146 49.4844 133.761 49.8085 134.474 50.0307C135.186 50.253 135.973 50.3641 136.833 50.3641C137.046 50.3641 137.305 50.3549 137.611 50.3363C137.916 50.3178 138.245 50.2808 138.596 50.2252C138.948 50.1696 139.313 50.0909 139.693 49.9891C140.072 49.8779 140.438 49.7344 140.789 49.5584V51.0587ZM138.707 43.6964C138.707 43.0019 138.61 42.3907 138.416 41.8628C138.221 41.3257 137.958 40.8765 137.625 40.5154C137.291 40.1542 136.903 39.881 136.459 39.6958C136.024 39.5106 135.556 39.418 135.057 39.418C134.501 39.418 133.979 39.5337 133.488 39.7653C132.998 39.9875 132.567 40.2931 132.197 40.6821C131.836 41.071 131.549 41.5248 131.337 42.0434C131.124 42.562 131.017 43.113 131.017 43.6964H138.707Z" fill="white"/>
<path d="M144.954 49.4195L145.203 49.2528C145.555 49.4473 145.925 49.6233 146.314 49.7807C146.703 49.9289 147.087 50.0539 147.466 50.1558C147.845 50.2576 148.216 50.3363 148.576 50.3919C148.947 50.4475 149.289 50.4752 149.604 50.4752C150.038 50.4752 150.436 50.4243 150.797 50.3224C151.158 50.2206 151.464 50.077 151.713 49.8918C151.973 49.7066 152.171 49.4844 152.31 49.2251C152.458 48.9658 152.532 48.6787 152.532 48.3638C152.532 47.9656 152.421 47.6368 152.199 47.3775C151.977 47.109 151.686 46.8821 151.325 46.6969C150.964 46.5024 150.552 46.3357 150.089 46.1968C149.627 46.0579 149.155 45.9144 148.674 45.7662C148.192 45.618 147.72 45.4513 147.258 45.2661C146.795 45.0809 146.383 44.8494 146.022 44.5716C145.661 44.2845 145.37 43.9418 145.148 43.5436C144.926 43.1361 144.815 42.6407 144.815 42.0573C144.815 41.409 144.958 40.7978 145.245 40.2237C145.532 39.6402 145.934 39.1355 146.453 38.7095C146.971 38.2743 147.591 37.9316 148.313 37.6816C149.044 37.4316 149.853 37.3065 150.742 37.3065C150.955 37.3065 151.209 37.3158 151.505 37.3343C151.801 37.3528 152.116 37.3853 152.449 37.4316C152.782 37.4686 153.12 37.5242 153.462 37.5982C153.814 37.6631 154.152 37.7464 154.476 37.8483L153.92 40.0153L153.587 40.2098C153.328 40.0709 153.041 39.9505 152.727 39.8486C152.421 39.7467 152.107 39.668 151.783 39.6124C151.468 39.5476 151.158 39.5013 150.853 39.4735C150.547 39.4365 150.279 39.418 150.048 39.418C149.622 39.418 149.233 39.4643 148.882 39.5569C148.539 39.6495 148.243 39.7838 147.993 39.9597C147.744 40.1264 147.549 40.3348 147.41 40.5848C147.272 40.8256 147.202 41.1034 147.202 41.4183C147.202 41.8258 147.313 42.1638 147.535 42.4323C147.757 42.7009 148.054 42.9324 148.424 43.1269C148.794 43.3121 149.21 43.4742 149.673 43.6131C150.145 43.752 150.626 43.8955 151.117 44.0437C151.607 44.1919 152.084 44.3586 152.546 44.5438C153.018 44.729 153.439 44.9651 153.809 45.2522C154.18 45.5393 154.476 45.8912 154.698 46.3079C154.92 46.7154 155.031 47.2155 155.031 47.8082C155.031 48.5027 154.874 49.1417 154.559 49.7251C154.254 50.3086 153.828 50.8133 153.282 51.2393C152.745 51.6652 152.111 51.9986 151.38 52.2394C150.658 52.4709 149.881 52.5867 149.048 52.5867C148.336 52.5867 147.572 52.5033 146.758 52.3366C145.953 52.17 145.166 51.9384 144.398 51.6421L144.954 49.4195Z" fill="white"/>
<path d="M158.987 37.5844H161.624V52.3089H158.987V37.5844ZM160.319 34.3894C160.088 34.3894 159.871 34.3477 159.667 34.2644C159.463 34.181 159.288 34.0653 159.14 33.9171C158.992 33.7689 158.876 33.5976 158.793 33.4032C158.709 33.1994 158.668 32.9772 158.668 32.7364C158.668 32.4956 158.714 32.2687 158.806 32.0557C158.899 31.8427 159.019 31.6575 159.167 31.5001C159.325 31.3426 159.505 31.2223 159.709 31.1389C159.922 31.0463 160.144 31 160.375 31C160.597 31 160.805 31.0463 161 31.1389C161.203 31.2223 161.379 31.3426 161.527 31.5001C161.675 31.6575 161.791 31.8427 161.874 32.0557C161.957 32.2595 161.999 32.4771 161.999 32.7086C161.999 32.9586 161.953 33.1902 161.86 33.4032C161.768 33.6069 161.643 33.7828 161.485 33.931C161.337 34.0699 161.162 34.181 160.958 34.2644C160.754 34.3477 160.542 34.3894 160.319 34.3894Z" fill="white"/>
<path d="M170.411 53.1423C170.17 53.2627 169.911 53.4109 169.633 53.5868C169.365 53.7628 169.115 53.9573 168.884 54.1703C168.652 54.3925 168.458 54.6333 168.301 54.8926C168.143 55.1612 168.065 55.439 168.065 55.7261C168.065 56.0224 168.153 56.3002 168.329 56.5595C168.514 56.8281 168.777 57.0596 169.12 57.2541C169.471 57.4486 169.902 57.6014 170.411 57.7125C170.92 57.8329 171.503 57.8931 172.16 57.8931C172.909 57.8931 173.58 57.819 174.172 57.6708C174.765 57.5226 175.264 57.3189 175.671 57.0596C176.079 56.8003 176.389 56.4993 176.601 56.1567C176.814 55.8233 176.921 55.4668 176.921 55.0871C176.921 54.7444 176.837 54.4481 176.671 54.198C176.504 53.9573 176.278 53.7582 175.991 53.6007C175.713 53.4433 175.385 53.3275 175.005 53.2535C174.635 53.1794 174.246 53.1423 173.839 53.1423H170.411ZM168.509 52.8645C168.222 52.7719 167.954 52.6561 167.704 52.5172C167.454 52.3783 167.237 52.2255 167.052 52.0588C166.866 51.8829 166.718 51.6884 166.607 51.4754C166.506 51.2531 166.455 51.017 166.455 50.767C166.455 50.4614 166.529 50.1743 166.677 49.9057C166.834 49.6279 167.033 49.364 167.274 49.1139C167.523 48.8546 167.801 48.6138 168.106 48.3916C168.421 48.1601 168.74 47.9378 169.064 47.7248C168.037 47.2247 167.283 46.5672 166.802 45.7523C166.33 44.9374 166.094 44.053 166.094 43.0991C166.094 42.5064 166.177 41.9508 166.344 41.4322C166.519 40.9136 166.76 40.4413 167.065 40.0153C167.371 39.58 167.727 39.1957 168.134 38.8623C168.541 38.5289 168.981 38.2465 169.453 38.015C169.925 37.7835 170.415 37.6075 170.924 37.4871C171.442 37.3667 171.956 37.3065 172.465 37.3065C173.076 37.3065 173.668 37.3853 174.242 37.5427C174.815 37.7001 175.297 37.9039 175.685 38.1539C175.833 38.0705 176.014 37.9918 176.227 37.9177C176.449 37.8437 176.68 37.7835 176.921 37.7372C177.161 37.6909 177.402 37.6538 177.642 37.626C177.892 37.5982 178.124 37.5844 178.336 37.5844H180.835L180.28 39.668H177.004C177.069 39.7051 177.161 39.8116 177.282 39.9875C177.411 40.1542 177.536 40.3765 177.656 40.6543C177.786 40.9228 177.897 41.2377 177.989 41.5989C178.091 41.96 178.142 42.3444 178.142 42.7518C178.142 43.5019 177.962 44.2104 177.601 44.8772C177.249 45.5347 176.782 46.1088 176.199 46.5996C175.625 47.0905 174.963 47.4794 174.214 47.7665C173.474 48.0536 172.715 48.1971 171.938 48.1971C171.734 48.1971 171.53 48.1879 171.327 48.1693C171.123 48.1508 170.906 48.1277 170.674 48.0999C170.508 48.2017 170.327 48.3175 170.133 48.4472C169.948 48.5768 169.777 48.7203 169.619 48.8778C169.471 49.0259 169.346 49.188 169.245 49.364C169.143 49.5307 169.092 49.7066 169.092 49.8918C169.092 50.1882 169.226 50.4289 169.495 50.6142C169.772 50.7994 170.147 50.892 170.619 50.892H174.547C175.213 50.892 175.843 50.98 176.435 51.1559C177.027 51.3226 177.541 51.568 177.976 51.8921C178.42 52.207 178.771 52.5867 179.031 53.0312C179.29 53.4757 179.419 53.9665 179.419 54.5037C179.419 55.1334 179.239 55.7724 178.878 56.4206C178.517 57.0781 177.994 57.6754 177.309 58.2126C176.625 58.7497 175.782 59.1849 174.783 59.5183C173.793 59.861 172.659 60.0323 171.382 60.0323C170.54 60.0323 169.754 59.9536 169.023 59.7961C168.301 59.6387 167.672 59.4165 167.135 59.1294C166.607 58.8423 166.191 58.495 165.886 58.0875C165.58 57.6801 165.427 57.2263 165.427 56.7262C165.427 56.4206 165.483 56.1243 165.594 55.8372C165.714 55.5501 165.862 55.2816 166.038 55.0315C166.223 54.7815 166.427 54.5453 166.649 54.3231C166.88 54.1008 167.107 53.8971 167.329 53.7119C167.56 53.5359 167.778 53.3738 167.982 53.2257C168.194 53.0868 168.37 52.9664 168.509 52.8645ZM168.592 42.6685C168.592 43.1686 168.68 43.6362 168.856 44.0715C169.032 44.5067 169.272 44.8864 169.578 45.2105C169.892 45.5254 170.267 45.7754 170.702 45.9607C171.137 46.1366 171.614 46.2246 172.132 46.2246C172.622 46.2246 173.08 46.1412 173.506 45.9745C173.932 45.8079 174.302 45.5763 174.616 45.28C174.94 44.9837 175.19 44.6271 175.366 44.2104C175.551 43.7844 175.644 43.3121 175.644 42.7935C175.644 42.2934 175.556 41.8304 175.38 41.4044C175.204 40.9691 174.959 40.5987 174.644 40.2931C174.33 39.9782 173.955 39.7328 173.52 39.5569C173.085 39.3717 172.608 39.2791 172.09 39.2791C171.6 39.2791 171.142 39.3624 170.716 39.5291C170.3 39.6865 169.929 39.9134 169.606 40.2098C169.291 40.4968 169.041 40.8534 168.856 41.2794C168.68 41.6961 168.592 42.1591 168.592 42.6685Z" fill="white"/>
<path d="M183.708 37.5844H185.763L186.179 40.1403C186.503 39.8347 186.873 39.5152 187.289 39.1818C187.706 38.8484 188.155 38.5428 188.636 38.265C189.126 37.9872 189.645 37.7603 190.191 37.5844C190.737 37.3991 191.296 37.3065 191.87 37.3065C192.546 37.3065 193.152 37.4362 193.688 37.6955C194.234 37.9548 194.697 38.3206 195.077 38.7929C195.465 39.2559 195.761 39.8116 195.965 40.4598C196.178 41.0988 196.284 41.798 196.284 42.5574V52.3089H193.647V42.8074C193.647 42.2703 193.568 41.798 193.411 41.3905C193.263 40.9738 193.055 40.6311 192.786 40.3626C192.518 40.0847 192.199 39.8764 191.828 39.7375C191.458 39.5986 191.056 39.5291 190.621 39.5291C189.853 39.5291 189.126 39.7328 188.442 40.1403C187.757 40.5478 187.058 41.0849 186.346 41.7517V52.3089H183.708V37.5844Z" fill="white"/>
<path fill-rule="evenodd" clip-rule="evenodd" d="M116.043 59.6582C122.429 59.6582 127.893 63.6095 130.127 69.2026C130.203 69.3935 130.276 69.5863 130.344 69.781H181.572C189.417 69.781 195.87 75.7436 196.654 83.3873C202.545 86.3623 206.138 93.0521 204.673 100.057L199.258 125.937C197.787 132.966 191.594 138 184.418 138H113.161C104.788 138 98 131.207 98 122.827V74.8309C98 72.8422 98.3823 70.9429 99.0774 69.2026C101.311 63.6095 106.775 59.6582 113.161 59.6582H116.043ZM188.679 90.0305V89.8348H121.649C118.26 89.8348 115.343 92.2292 114.679 95.5549L109.517 121.435C108.64 125.835 112.003 129.939 116.487 129.939H181.572C181.784 129.939 181.994 129.93 182.201 129.912L182.196 129.939H184.418C187.782 129.939 190.685 127.58 191.374 124.285L196.789 98.4047C197.714 93.9862 194.344 89.8348 189.833 89.8348H188.711L188.679 90.0305ZM181.572 77.8415C184.355 77.8415 186.765 79.4425 187.931 81.7743H121.649C114.42 81.7743 108.196 86.8823 106.781 93.977L106.054 97.6184V73.8826C106.054 69.0381 109.979 65.1109 114.82 65.1109C119.66 65.1109 123.585 69.0381 123.585 73.8826V77.8415H181.572Z" fill="#373737"/>
<path d="M98.0556 69.781H98V71.0898C98 70.6489 98.0188 70.2124 98.0556 69.781Z" fill="#373737"/>
</svg>
