<svg width="538" height="172" viewBox="0 0 538 172" fill="none" xmlns="http://www.w3.org/2000/svg">
<path d="M12 22C12 18.6863 14.6863 16 18 16H515C518.314 16 521 18.6863 521 22V149C521 152.314 518.314 155 515 155H18C14.6863 155 12 152.314 12 149V22Z" fill="#5E5E5E"/>
<mask id="path-2-outside-1_140_12" maskUnits="userSpaceOnUse" x="0" y="0" width="538" height="172" fill="black">
<rect fill="white" width="538" height="172"/>
<path d="M21 27C21 23.6863 23.6863 21 27 21H511C514.314 21 517 23.6863 517 27V145C517 148.314 514.314 151 511 151H27C23.6863 151 21 148.314 21 145V27Z"/>
</mask>
<path d="M0 27C0 12.0883 12.0883 0 27 0H511C525.912 0 538 12.0883 538 27L496 42H42L0 27ZM538 145C538 159.912 525.912 172 511 172H27C12.0883 172 0 159.912 0 145L42 130H496L538 145ZM27 172C12.0883 172 0 159.912 0 145V27C0 12.0883 12.0883 0 27 0L42 42V130L27 172ZM511 0C525.912 0 538 12.0883 538 27V145C538 159.912 525.912 172 511 172L496 130V42L511 0Z" fill="#373737" mask="url(#path-2-outside-1_140_12)"/>
<path d="M97.7077 53.0587H95V32.8864H100.526C101.594 32.8864 102.584 33.0241 103.496 33.2995C104.417 33.5657 105.214 33.9604 105.886 34.4837C106.567 35.0069 107.102 35.6587 107.488 36.4389C107.875 37.21 108.069 38.1051 108.069 39.124C108.069 39.8492 107.972 40.5239 107.778 41.1481C107.585 41.7632 107.313 42.3231 106.963 42.828C106.623 43.3329 106.222 43.7827 105.762 44.1774C105.301 44.5629 104.804 44.8888 104.27 45.155C103.735 45.4212 103.178 45.6232 102.598 45.7609C102.018 45.8986 101.438 45.9674 100.857 45.9674C100.747 45.9674 100.627 45.9674 100.498 45.9674C100.369 45.9583 100.213 45.9399 100.029 45.9124L100.222 43.8469C100.388 43.8745 100.53 43.8928 100.65 43.902C100.77 43.902 100.89 43.902 101.009 43.902C101.599 43.902 102.151 43.8148 102.667 43.6404C103.192 43.4568 103.648 43.1814 104.035 42.8142C104.431 42.447 104.739 41.9881 104.96 41.4373C105.191 40.8773 105.306 40.2164 105.306 39.4545C105.306 38.6742 105.181 38.0041 104.933 37.4441C104.693 36.8842 104.343 36.4252 103.883 36.0672C103.431 35.7092 102.874 35.4475 102.211 35.2823C101.557 35.1079 100.821 35.0207 100.001 35.0207H97.7077V53.0587Z" fill="white"/>
<path d="M111.84 38.4631H114.465V53.0587H111.84V38.4631ZM113.166 35.2961C112.936 35.2961 112.719 35.2548 112.517 35.1722C112.314 35.0895 112.139 34.9748 111.992 34.8279C111.845 34.681 111.729 34.5112 111.647 34.3184C111.564 34.1165 111.522 33.8962 111.522 33.6575C111.522 33.4188 111.568 33.1939 111.66 32.9828C111.752 32.7717 111.872 32.5881 112.02 32.432C112.176 32.276 112.356 32.1566 112.558 32.074C112.77 31.9822 112.991 31.9363 113.221 31.9363C113.442 31.9363 113.65 31.9822 113.843 32.074C114.046 32.1566 114.221 32.276 114.368 32.432C114.515 32.5881 114.63 32.7717 114.713 32.9828C114.796 33.1848 114.838 33.4005 114.838 33.63C114.838 33.8778 114.792 34.1073 114.7 34.3184C114.607 34.5204 114.483 34.6948 114.327 34.8417C114.179 34.9794 114.004 35.0895 113.802 35.1722C113.599 35.2548 113.387 35.2961 113.166 35.2961Z" fill="white"/>
<path d="M117.628 53.0587L123.154 45.4993L118.084 38.4631H121.151L123.472 42.0707L124.549 44.081H124.826L125.986 42.0707L128.473 38.4631H131.18L125.945 45.3753L131.636 53.0587H128.569L125.806 48.9554L124.632 46.8349H124.356L123.182 48.9003L120.336 53.0587H117.628Z" fill="white"/>
<path d="M146.031 51.8195C145.681 52.0673 145.276 52.2876 144.815 52.4804C144.364 52.664 143.894 52.8201 143.406 52.9486C142.918 53.0771 142.425 53.1735 141.928 53.2377C141.44 53.302 140.984 53.3341 140.56 53.3341C139.621 53.3341 138.728 53.1781 137.88 52.8659C137.033 52.5538 136.292 52.0949 135.656 51.489C135.021 50.8831 134.514 50.135 134.137 49.2446C133.759 48.345 133.57 47.3123 133.57 46.1464C133.57 44.9439 133.768 43.8515 134.164 42.8693C134.57 41.8871 135.108 41.0517 135.781 40.3633C136.453 39.6656 137.227 39.1286 138.101 38.7522C138.986 38.3759 139.911 38.1877 140.878 38.1877C141.661 38.1877 142.389 38.3208 143.061 38.587C143.742 38.844 144.332 39.2342 144.829 39.7574C145.336 40.2806 145.732 40.937 146.017 41.7264C146.303 42.5067 146.445 43.4201 146.445 44.4666C146.445 44.6777 146.436 44.9301 146.418 45.2239C146.399 45.5176 146.363 45.8252 146.307 46.1464H136.306C136.306 46.9359 136.444 47.6427 136.72 48.2669C137.005 48.882 137.401 49.4052 137.908 49.8367C138.424 50.2589 139.036 50.5802 139.745 50.8005C140.455 51.0208 141.237 51.131 142.094 51.131C142.306 51.131 142.564 51.1218 142.867 51.1035C143.171 51.0851 143.498 51.0484 143.848 50.9933C144.198 50.9382 144.562 50.8602 144.94 50.7592C145.317 50.6491 145.681 50.5068 146.031 50.3324V51.8195ZM143.959 44.5216C143.959 43.8332 143.862 43.2273 143.669 42.7041C143.475 42.1716 143.213 41.7264 142.881 41.3684C142.55 41.0104 142.163 40.7396 141.721 40.556C141.288 40.3724 140.823 40.2806 140.326 40.2806C139.773 40.2806 139.253 40.3954 138.765 40.6249C138.276 40.8452 137.848 41.1481 137.48 41.5337C137.121 41.9192 136.835 42.369 136.623 42.8831C136.411 43.3971 136.306 43.9433 136.306 44.5216H143.959Z" fill="white"/>
<path d="M150.535 31H153.159V53.0587H150.535V31Z" fill="white"/>
<path d="M176.105 47.5785H167.374L165.482 53.0587H162.926L170.455 32.8864H173.329L180.871 53.0587H178.026L176.105 47.5785ZM175.345 45.4717L172.665 37.5956L171.878 34.7866H171.602L170.814 37.5956L168.107 45.4717H175.345Z" fill="white"/>
<path d="M184.408 38.4631H186.452L186.867 42.8418C186.987 42.6123 187.111 42.3782 187.24 42.1395C187.378 41.8917 187.512 41.653 187.64 41.4235C187.779 41.194 187.912 40.9783 188.041 40.7763C188.17 40.5744 188.285 40.4 188.386 40.2531C188.589 39.9685 188.815 39.7023 189.063 39.4545C189.321 39.1974 189.598 38.9771 189.892 38.7935C190.187 38.6008 190.5 38.4539 190.832 38.3529C191.163 38.2428 191.518 38.1877 191.895 38.1877C192.162 38.1877 192.416 38.2198 192.655 38.2841C192.895 38.3391 193.093 38.4355 193.249 38.5732L192.973 41.0242C192.807 40.9783 192.641 40.9508 192.476 40.9416C192.319 40.9232 192.162 40.914 192.006 40.914C191.352 40.914 190.781 41.0196 190.293 41.2307C189.814 41.4419 189.381 41.731 188.994 42.0982C188.617 42.4562 188.271 42.8785 187.958 43.365C187.654 43.8515 187.346 44.3748 187.033 44.9347V53.0587H184.408V38.4631Z" fill="white"/>
<path d="M198.07 40.556H195.114L195.335 39.2066C196.054 39.0597 196.629 38.8761 197.062 38.6558C197.495 38.4263 197.849 38.1418 198.126 37.8021C198.411 37.4625 198.646 37.054 198.83 36.5766C199.024 36.0901 199.24 35.5118 199.48 34.8417H200.695V38.4631H206L205.447 40.556H200.695V48.7076C200.695 49.1482 200.76 49.5246 200.889 49.8367C201.027 50.1396 201.216 50.3874 201.455 50.5802C201.694 50.773 201.985 50.9153 202.325 51.0071C202.666 51.0897 203.044 51.131 203.458 51.131C203.882 51.131 204.301 51.0943 204.715 51.0208C205.139 50.9382 205.54 50.8281 205.917 50.6904V52.1775C205.337 52.5538 204.724 52.843 204.08 53.045C203.444 53.2377 202.795 53.3341 202.132 53.3341C201.515 53.3341 200.958 53.2469 200.46 53.0725C199.963 52.8981 199.535 52.6456 199.176 52.3152C198.826 51.9847 198.554 51.5762 198.361 51.0897C198.167 50.594 198.07 50.0294 198.07 49.396V40.556Z" fill="white"/>
<path fill-rule="evenodd" clip-rule="evenodd" d="M116.076 60.3437C122.431 60.3437 127.869 64.2605 130.092 69.8046C130.168 69.9938 130.24 70.185 130.309 70.3779H181.293C189.1 70.3779 195.523 76.2884 196.302 83.8652C202.166 86.8141 205.742 93.4454 204.283 100.389L198.894 126.042C197.43 133.01 191.267 138 184.125 138H113.208C104.874 138 98.1184 131.266 98.1184 122.96V75.3837C98.1184 73.4124 98.4989 71.5297 99.1907 69.8046C101.414 64.2605 106.852 60.3437 113.208 60.3437H116.076ZM188.366 90.4502V90.2563H121.655C118.282 90.2563 115.379 92.6297 114.718 95.9263L109.581 121.58C108.707 125.942 112.055 130.01 116.517 130.01H181.293C181.504 130.01 181.712 130.001 181.918 129.983L181.914 130.01H184.125C187.473 130.01 190.362 127.671 191.048 124.405L196.437 98.7512C197.357 94.3713 194.004 90.2563 189.514 90.2563H188.397L188.366 90.4502ZM181.293 78.3679C184.063 78.3679 186.461 79.9549 187.621 82.2663H121.655C114.46 82.2663 108.266 87.3296 106.857 94.3623L106.135 97.9718V74.4437C106.135 69.6416 110.04 65.7487 114.858 65.7487C119.676 65.7487 123.581 69.6416 123.581 74.4437V78.3679H181.293Z" fill="#373737"/>
<path d="M98.1738 70.3779H98.1184V71.6753C98.1184 71.2383 98.1371 70.8056 98.1738 70.3779Z" fill="#373737"/>
<path d="M363.842 47.6762H355.069L353.168 53.1505H350.6L358.165 33H361.052L368.631 53.1505H365.771L363.842 47.6762ZM363.078 45.5717L360.385 37.7041L359.594 34.8981H359.317L358.525 37.7041L355.805 45.5717H363.078Z" fill="white"/>
<path d="M375.488 53.1505H372.767V33H375.488V53.1505Z" fill="white"/>
<path d="M395.17 50.9773C394.939 51.1698 394.657 51.4083 394.324 51.6925C394 51.9676 393.63 52.2335 393.213 52.4903C392.806 52.747 392.357 52.9671 391.867 53.1505C391.386 53.3339 390.872 53.4256 390.326 53.4256C389.836 53.4256 389.354 53.3385 388.882 53.1643C388.42 52.9992 388.008 52.7516 387.647 52.4215C387.286 52.0822 386.995 51.665 386.773 51.1698C386.56 50.6747 386.453 50.1062 386.453 49.4643C386.453 49.07 386.5 48.6711 386.592 48.2676C386.694 47.8642 386.86 47.479 387.092 47.1122C387.323 46.7363 387.624 46.3878 387.994 46.0669C388.373 45.7368 388.836 45.4525 389.382 45.2141C389.937 44.9665 390.59 44.7739 391.339 44.6364C392.089 44.4989 392.949 44.4301 393.921 44.4301H395.17V43.1647C395.17 42.7429 395.096 42.3623 394.948 42.023C394.8 41.6837 394.592 41.3949 394.324 41.1565C394.065 40.9089 393.75 40.7209 393.38 40.5925C393.019 40.455 392.616 40.3862 392.172 40.3862C391.839 40.3862 391.483 40.4229 391.103 40.4963C390.733 40.5696 390.358 40.6751 389.979 40.8126C389.609 40.9502 389.253 41.1106 388.91 41.294C388.568 41.4774 388.267 41.6792 388.008 41.8992L387.758 41.7617L387.203 39.7535C387.74 39.4601 388.258 39.2217 388.758 39.0383C389.257 38.8457 389.734 38.6944 390.187 38.5844C390.65 38.4743 391.089 38.401 391.506 38.3643C391.922 38.3185 392.32 38.2955 392.7 38.2955C394.43 38.2955 395.712 38.6531 396.545 39.3684C397.387 40.0745 397.808 41.1381 397.808 42.5595V49.7394C397.808 49.8586 397.817 50.0053 397.835 50.1795C397.854 50.3446 397.896 50.505 397.96 50.6609C398.034 50.8168 398.136 50.9498 398.266 51.0598C398.405 51.1698 398.59 51.2249 398.821 51.2249C398.951 51.2249 399.122 51.2065 399.335 51.1698C399.547 51.124 399.76 51.0506 399.973 50.9498V52.4078C399.529 52.7104 399.08 52.9579 398.627 53.1505C398.182 53.3339 397.752 53.4256 397.336 53.4256C396.956 53.4256 396.642 53.3477 396.392 53.1918C396.151 53.0451 395.948 52.8525 395.781 52.6141C395.624 52.3757 395.499 52.1143 395.406 51.8301C395.314 51.5366 395.235 51.2524 395.17 50.9773ZM395.17 46.0256H394.115C393.033 46.0256 392.168 46.1036 391.52 46.2594C390.881 46.4062 390.391 46.6079 390.048 46.8646C389.715 47.1122 389.493 47.4011 389.382 47.7312C389.28 48.0613 389.229 48.4052 389.229 48.7628C389.229 49.1479 389.285 49.4918 389.396 49.7944C389.507 50.097 389.66 50.3583 389.854 50.5784C390.058 50.7893 390.298 50.9498 390.576 51.0598C390.853 51.1698 391.154 51.2249 391.478 51.2249C391.728 51.2249 391.982 51.1974 392.242 51.1423C392.51 51.0781 392.792 50.9727 393.088 50.826C393.394 50.6701 393.713 50.4638 394.046 50.207C394.388 49.9503 394.763 49.6202 395.17 49.2167V46.0256Z" fill="white"/>
<path d="M403.193 38.5706H405.248L405.664 42.9446C405.784 42.7153 405.909 42.4815 406.039 42.2431C406.178 41.9955 406.312 41.7571 406.441 41.5279C406.58 41.2986 406.714 41.0831 406.844 40.8814C406.974 40.6797 407.089 40.5054 407.191 40.3587C407.395 40.0745 407.621 39.8085 407.871 39.561C408.13 39.3042 408.408 39.0841 408.704 38.9007C409 38.7082 409.315 38.5614 409.648 38.4606C409.981 38.3505 410.337 38.2955 410.717 38.2955C410.985 38.2955 411.24 38.3276 411.48 38.3918C411.721 38.4468 411.92 38.5431 412.077 38.6807L411.799 41.129C411.633 41.0831 411.466 41.0556 411.3 41.0464C411.142 41.0281 410.985 41.0189 410.828 41.0189C410.171 41.0189 409.597 41.1244 409.107 41.3353C408.625 41.5462 408.19 41.835 407.802 42.2018C407.422 42.5595 407.075 42.9813 406.761 43.4673C406.455 43.9533 406.145 44.4759 405.831 45.0353V53.1505H403.193V38.5706Z" fill="white"/>
<path d="M416.921 40.6613H413.951L414.173 39.3134C414.895 39.1667 415.473 38.9833 415.908 38.7632C416.343 38.5339 416.699 38.2497 416.977 37.9104C417.264 37.5711 417.5 37.1631 417.685 36.6862C417.879 36.2002 418.097 35.6225 418.337 34.9532H419.559V38.5706H424.889L424.334 40.6613H419.559V48.804C419.559 49.2442 419.623 49.6202 419.753 49.9319C419.892 50.2345 420.081 50.4821 420.322 50.6747C420.563 50.8672 420.854 51.0094 421.197 51.1011C421.539 51.1836 421.918 51.2249 422.335 51.2249C422.76 51.2249 423.181 51.1882 423.598 51.1148C424.024 51.0323 424.426 50.9223 424.806 50.7847V52.2702C424.223 52.6462 423.607 52.935 422.959 53.1368C422.321 53.3293 421.668 53.4256 421.002 53.4256C420.382 53.4256 419.822 53.3385 419.323 53.1643C418.823 52.99 418.393 52.7379 418.032 52.4078C417.68 52.0776 417.407 51.6696 417.213 51.1836C417.018 50.6884 416.921 50.1245 416.921 49.4918V40.6613Z" fill="white"/>
<path fill-rule="evenodd" clip-rule="evenodd" d="M354.043 60.4276C360.429 60.4276 365.893 64.3402 368.127 69.8783C368.203 70.0673 368.276 70.2583 368.344 70.451H419.572C427.417 70.451 433.87 76.3551 434.654 83.9237C440.545 86.8694 444.138 93.4936 442.673 100.429L437.258 126.055C435.787 133.015 429.594 138 422.418 138H351.161C342.788 138 336 131.274 336 122.976V75.4513C336 73.4822 336.382 71.6015 337.077 69.8783C339.311 64.3402 344.775 60.4276 351.161 60.4276H354.043ZM426.679 90.5016V90.3079H359.649C356.26 90.3079 353.343 92.6788 352.679 95.9718L347.517 121.598C346.64 125.955 350.003 130.019 354.487 130.019H419.572C419.784 130.019 419.994 130.009 420.201 129.991L420.196 130.019H422.418C425.782 130.019 428.685 127.682 429.374 124.42L434.789 98.7936C435.714 94.4185 432.344 90.3079 427.833 90.3079H426.711L426.679 90.5016ZM419.572 78.4324C422.355 78.4324 424.765 80.0176 425.931 82.3266H359.649C352.42 82.3266 346.196 87.3844 344.781 94.4094L344.054 98.015V74.5123C344.054 69.7154 347.979 65.8268 352.82 65.8268C357.66 65.8268 361.585 69.7154 361.585 74.5123V78.4324H419.572Z" fill="#373737"/>
<path d="M336.056 70.451H336V71.747C336 71.3104 336.019 70.8782 336.056 70.451Z" fill="#373737"/>
</svg>
