<svg width="538" height="172" viewBox="0 0 538 172" fill="none" xmlns="http://www.w3.org/2000/svg">
<path d="M12 22C12 18.6863 14.6863 16 18 16H515C518.314 16 521 18.6863 521 22V149C521 152.314 518.314 155 515 155H18C14.6863 155 12 152.314 12 149V22Z" fill="#5E5E5E"/>
<mask id="path-2-outside-1_140_12" maskUnits="userSpaceOnUse" x="0" y="0" width="538" height="172" fill="black">
<rect fill="white" width="538" height="172"/>
<path d="M21 27C21 23.6863 23.6863 21 27 21H511C514.314 21 517 23.6863 517 27V145C517 148.314 514.314 151 511 151H27C23.6863 151 21 148.314 21 145V27Z"/>
</mask>
<path d="M0 27C0 12.0883 12.0883 0 27 0H511C525.912 0 538 12.0883 538 27L496 42H42L0 27ZM538 145C538 159.912 525.912 172 511 172H27C12.0883 172 0 159.912 0 145L42 130H496L538 145ZM27 172C12.0883 172 0 159.912 0 145V27C0 12.0883 12.0883 0 27 0L42 42V130L27 172ZM511 0C525.912 0 538 12.0883 538 27V145C538 159.912 525.912 172 511 172L496 130V42L511 0Z" fill="#373737" mask="url(#path-2-outside-1_140_12)"/>
<path d="M97.7077 53.0587H95V32.8864H100.526C101.594 32.8864 102.584 33.0241 103.496 33.2995C104.417 33.5657 105.214 33.9604 105.886 34.4837C106.567 35.0069 107.102 35.6587 107.488 36.4389C107.875 37.21 108.069 38.1051 108.069 39.124C108.069 39.8492 107.972 40.5239 107.778 41.1481C107.585 41.7632 107.313 42.3231 106.963 42.828C106.623 43.3329 106.222 43.7827 105.762 44.1774C105.301 44.5629 104.804 44.8888 104.27 45.155C103.735 45.4212 103.178 45.6232 102.598 45.7609C102.018 45.8986 101.438 45.9674 100.857 45.9674C100.747 45.9674 100.627 45.9674 100.498 45.9674C100.369 45.9583 100.213 45.9399 100.029 45.9124L100.222 43.8469C100.388 43.8745 100.53 43.8928 100.65 43.902C100.77 43.902 100.89 43.902 101.009 43.902C101.599 43.902 102.151 43.8148 102.667 43.6404C103.192 43.4568 103.648 43.1814 104.035 42.8142C104.431 42.447 104.739 41.9881 104.96 41.4373C105.191 40.8773 105.306 40.2164 105.306 39.4545C105.306 38.6742 105.181 38.0041 104.933 37.4441C104.693 36.8842 104.343 36.4252 103.883 36.0672C103.431 35.7092 102.874 35.4475 102.211 35.2823C101.557 35.1079 100.821 35.0207 100.001 35.0207H97.7077V53.0587Z" fill="white"/>
<path d="M111.84 38.4631H114.465V53.0587H111.84V38.4631ZM113.166 35.2961C112.936 35.2961 112.719 35.2548 112.517 35.1722C112.314 35.0895 112.139 34.9748 111.992 34.8279C111.845 34.681 111.729 34.5112 111.647 34.3184C111.564 34.1165 111.522 33.8962 111.522 33.6575C111.522 33.4188 111.568 33.1939 111.66 32.9828C111.752 32.7717 111.872 32.5881 112.02 32.432C112.176 32.276 112.356 32.1566 112.558 32.074C112.77 31.9822 112.991 31.9363 113.221 31.9363C113.442 31.9363 113.65 31.9822 113.843 32.074C114.046 32.1566 114.221 32.276 114.368 32.432C114.515 32.5881 114.63 32.7717 114.713 32.9828C114.796 33.1848 114.838 33.4005 114.838 33.63C114.838 33.8778 114.792 34.1073 114.7 34.3184C114.607 34.5204 114.483 34.6948 114.327 34.8417C114.179 34.9794 114.004 35.0895 113.802 35.1722C113.599 35.2548 113.387 35.2961 113.166 35.2961Z" fill="white"/>
<path d="M117.628 53.0587L123.154 45.4993L118.084 38.4631H121.151L123.472 42.0707L124.549 44.081H124.826L125.986 42.0707L128.473 38.4631H131.18L125.945 45.3753L131.636 53.0587H128.569L125.806 48.9554L124.632 46.8349H124.356L123.182 48.9003L120.336 53.0587H117.628Z" fill="white"/>
<path d="M146.031 51.8195C145.681 52.0673 145.276 52.2876 144.815 52.4804C144.364 52.664 143.894 52.8201 143.406 52.9486C142.918 53.0771 142.425 53.1735 141.928 53.2377C141.44 53.302 140.984 53.3341 140.56 53.3341C139.621 53.3341 138.728 53.1781 137.88 52.8659C137.033 52.5538 136.292 52.0949 135.656 51.489C135.021 50.8831 134.514 50.135 134.137 49.2446C133.759 48.345 133.57 47.3123 133.57 46.1464C133.57 44.9439 133.768 43.8515 134.164 42.8693C134.57 41.8871 135.108 41.0517 135.781 40.3633C136.453 39.6656 137.227 39.1286 138.101 38.7522C138.986 38.3759 139.911 38.1877 140.878 38.1877C141.661 38.1877 142.389 38.3208 143.061 38.587C143.742 38.844 144.332 39.2342 144.829 39.7574C145.336 40.2806 145.732 40.937 146.017 41.7264C146.303 42.5067 146.445 43.4201 146.445 44.4666C146.445 44.6777 146.436 44.9301 146.418 45.2239C146.399 45.5176 146.363 45.8252 146.307 46.1464H136.306C136.306 46.9359 136.444 47.6427 136.72 48.2669C137.005 48.882 137.401 49.4052 137.908 49.8367C138.424 50.2589 139.036 50.5802 139.745 50.8005C140.455 51.0208 141.237 51.131 142.094 51.131C142.306 51.131 142.564 51.1218 142.867 51.1035C143.171 51.0851 143.498 51.0484 143.848 50.9933C144.198 50.9382 144.562 50.8602 144.94 50.7592C145.317 50.6491 145.681 50.5068 146.031 50.3324V51.8195ZM143.959 44.5216C143.959 43.8332 143.862 43.2273 143.669 42.7041C143.475 42.1716 143.213 41.7264 142.881 41.3684C142.55 41.0104 142.163 40.7396 141.721 40.556C141.288 40.3724 140.823 40.2806 140.326 40.2806C139.773 40.2806 139.253 40.3954 138.765 40.6249C138.276 40.8452 137.848 41.1481 137.48 41.5337C137.121 41.9192 136.835 42.369 136.623 42.8831C136.411 43.3971 136.306 43.9433 136.306 44.5216H143.959Z" fill="white"/>
<path d="M150.535 31H153.159V53.0587H150.535V31Z" fill="white"/>
<path d="M176.105 47.5785H167.374L165.482 53.0587H162.926L170.455 32.8864H173.329L180.871 53.0587H178.026L176.105 47.5785ZM175.345 45.4717L172.665 37.5956L171.878 34.7866H171.602L170.814 37.5956L168.107 45.4717H175.345Z" fill="white"/>
<path d="M184.408 38.4631H186.452L186.867 42.8418C186.987 42.6123 187.111 42.3782 187.24 42.1395C187.378 41.8917 187.512 41.653 187.64 41.4235C187.779 41.194 187.912 40.9783 188.041 40.7763C188.17 40.5744 188.285 40.4 188.386 40.2531C188.589 39.9685 188.815 39.7023 189.063 39.4545C189.321 39.1974 189.598 38.9771 189.892 38.7935C190.187 38.6008 190.5 38.4539 190.832 38.3529C191.163 38.2428 191.518 38.1877 191.895 38.1877C192.162 38.1877 192.416 38.2198 192.655 38.2841C192.895 38.3391 193.093 38.4355 193.249 38.5732L192.973 41.0242C192.807 40.9783 192.641 40.9508 192.476 40.9416C192.319 40.9232 192.162 40.914 192.006 40.914C191.352 40.914 190.781 41.0196 190.293 41.2307C189.814 41.4419 189.381 41.731 188.994 42.0982C188.617 42.4562 188.271 42.8785 187.958 43.365C187.654 43.8515 187.346 44.3748 187.033 44.9347V53.0587H184.408V38.4631Z" fill="white"/>
<path d="M198.07 40.556H195.114L195.335 39.2066C196.054 39.0597 196.629 38.8761 197.062 38.6558C197.495 38.4263 197.849 38.1418 198.126 37.8021C198.411 37.4625 198.646 37.054 198.83 36.5766C199.024 36.0901 199.24 35.5118 199.48 34.8417H200.695V38.4631H206L205.447 40.556H200.695V48.7076C200.695 49.1482 200.76 49.5246 200.889 49.8367C201.027 50.1396 201.216 50.3874 201.455 50.5802C201.694 50.773 201.985 50.9153 202.325 51.0071C202.666 51.0897 203.044 51.131 203.458 51.131C203.882 51.131 204.301 51.0943 204.715 51.0208C205.139 50.9382 205.54 50.8281 205.917 50.6904V52.1775C205.337 52.5538 204.724 52.843 204.08 53.045C203.444 53.2377 202.795 53.3341 202.132 53.3341C201.515 53.3341 200.958 53.2469 200.46 53.0725C199.963 52.8981 199.535 52.6456 199.176 52.3152C198.826 51.9847 198.554 51.5762 198.361 51.0897C198.167 50.594 198.07 50.0294 198.07 49.396V40.556Z" fill="white"/>
<path fill-rule="evenodd" clip-rule="evenodd" d="M116.076 60.3437C122.431 60.3437 127.869 64.2605 130.092 69.8046C130.168 69.9938 130.24 70.185 130.309 70.3779H181.293C189.1 70.3779 195.523 76.2884 196.302 83.8652C202.166 86.8141 205.742 93.4454 204.283 100.389L198.894 126.042C197.43 133.01 191.267 138 184.125 138H113.208C104.874 138 98.1184 131.266 98.1184 122.96V75.3837C98.1184 73.4124 98.4989 71.5297 99.1907 69.8046C101.414 64.2605 106.852 60.3437 113.208 60.3437H116.076ZM188.366 90.4502V90.2563H121.655C118.282 90.2563 115.379 92.6297 114.718 95.9263L109.581 121.58C108.707 125.942 112.055 130.01 116.517 130.01H181.293C181.504 130.01 181.712 130.001 181.918 129.983L181.914 130.01H184.125C187.473 130.01 190.362 127.671 191.048 124.405L196.437 98.7512C197.357 94.3713 194.004 90.2563 189.514 90.2563H188.397L188.366 90.4502ZM181.293 78.3679C184.063 78.3679 186.461 79.9549 187.621 82.2663H121.655C114.46 82.2663 108.266 87.3296 106.857 94.3623L106.135 97.9718V74.4437C106.135 69.6416 110.04 65.7487 114.858 65.7487C119.676 65.7487 123.581 69.6416 123.581 74.4437V78.3679H181.293Z" fill="#373737"/>
<path d="M98.1738 70.3779H98.1184V71.6753C98.1184 71.2383 98.1371 70.8056 98.1738 70.3779Z" fill="#373737"/>
<path d="M344.948 31.9585H351.819C353.615 31.9585 355.188 32.2085 356.539 32.7086C357.899 33.1994 359.033 33.8708 359.939 34.7228C360.846 35.5748 361.526 36.5796 361.98 37.7372C362.443 38.8947 362.674 40.131 362.674 41.4461C362.674 42.2981 362.577 43.1593 362.382 44.0298C362.188 44.891 361.887 45.7245 361.48 46.5302C361.082 47.3359 360.578 48.0906 359.967 48.7944C359.356 49.4982 358.63 50.1095 357.788 50.628C356.955 51.1466 356.002 51.5587 354.929 51.8644C353.864 52.1607 352.68 52.3089 351.375 52.3089H344.948V31.9585ZM347.669 50.1558H351.875C353.217 50.1558 354.387 49.9428 355.387 49.5168C356.386 49.0815 357.21 48.4981 357.857 47.7665C358.514 47.0256 359.005 46.1644 359.329 45.1828C359.653 44.1919 359.815 43.1361 359.815 42.0156C359.815 40.7932 359.625 39.6958 359.245 38.7234C358.875 37.7418 358.329 36.913 357.608 36.2369C356.895 35.5516 356.011 35.0284 354.956 34.6672C353.911 34.2968 352.717 34.1116 351.375 34.1116H347.669V50.1558Z" fill="white"/>
<path d="M378.789 51.0587C378.438 51.3087 378.031 51.531 377.568 51.7254C377.114 51.9107 376.642 52.0681 376.152 52.1977C375.662 52.3274 375.167 52.4246 374.667 52.4894C374.176 52.5543 373.718 52.5867 373.293 52.5867C372.349 52.5867 371.451 52.4293 370.6 52.1144C369.748 51.7995 369.004 51.3365 368.365 50.7253C367.727 50.1141 367.218 49.3593 366.838 48.461C366.459 47.5535 366.269 46.5117 366.269 45.3356C366.269 44.1224 366.468 43.0204 366.866 42.0295C367.273 41.0386 367.814 40.1959 368.49 39.5013C369.165 38.7975 369.943 38.2558 370.822 37.8761C371.71 37.4964 372.64 37.3065 373.612 37.3065C374.398 37.3065 375.13 37.4408 375.805 37.7094C376.49 37.9687 377.082 38.3623 377.582 38.8901C378.091 39.418 378.489 40.0801 378.775 40.8765C379.062 41.6637 379.206 42.5851 379.206 43.6409C379.206 43.8538 379.197 44.1085 379.178 44.4049C379.16 44.7012 379.123 45.0114 379.067 45.3356H369.017C369.017 46.132 369.156 46.8451 369.434 47.4748C369.721 48.0952 370.119 48.6231 370.628 49.0584C371.146 49.4844 371.761 49.8085 372.474 50.0307C373.186 50.253 373.973 50.3641 374.833 50.3641C375.046 50.3641 375.305 50.3549 375.611 50.3363C375.916 50.3178 376.245 50.2808 376.596 50.2252C376.948 50.1696 377.313 50.0909 377.693 49.9891C378.072 49.8779 378.438 49.7344 378.789 49.5584V51.0587ZM376.707 43.6964C376.707 43.0019 376.61 42.3907 376.416 41.8628C376.221 41.3257 375.958 40.8765 375.625 40.5154C375.291 40.1542 374.903 39.881 374.459 39.6958C374.024 39.5106 373.556 39.418 373.057 39.418C372.501 39.418 371.979 39.5337 371.488 39.7653C370.998 39.9875 370.567 40.2931 370.197 40.6821C369.836 41.071 369.549 41.5248 369.337 42.0434C369.124 42.562 369.017 43.113 369.017 43.6964H376.707Z" fill="white"/>
<path d="M382.954 49.4195L383.203 49.2528C383.555 49.4473 383.925 49.6233 384.314 49.7807C384.703 49.9289 385.087 50.0539 385.466 50.1558C385.845 50.2576 386.216 50.3363 386.576 50.3919C386.947 50.4475 387.289 50.4752 387.604 50.4752C388.038 50.4752 388.436 50.4243 388.797 50.3224C389.158 50.2206 389.464 50.077 389.713 49.8918C389.973 49.7066 390.171 49.4844 390.31 49.2251C390.458 48.9658 390.532 48.6787 390.532 48.3638C390.532 47.9656 390.421 47.6368 390.199 47.3775C389.977 47.109 389.686 46.8821 389.325 46.6969C388.964 46.5024 388.552 46.3357 388.089 46.1968C387.627 46.0579 387.155 45.9144 386.674 45.7662C386.192 45.618 385.72 45.4513 385.258 45.2661C384.795 45.0809 384.383 44.8494 384.022 44.5716C383.661 44.2845 383.37 43.9418 383.148 43.5436C382.926 43.1361 382.815 42.6407 382.815 42.0573C382.815 41.409 382.958 40.7978 383.245 40.2237C383.532 39.6402 383.934 39.1355 384.453 38.7095C384.971 38.2743 385.591 37.9316 386.313 37.6816C387.044 37.4316 387.853 37.3065 388.742 37.3065C388.955 37.3065 389.209 37.3158 389.505 37.3343C389.801 37.3528 390.116 37.3853 390.449 37.4316C390.782 37.4686 391.12 37.5242 391.462 37.5982C391.814 37.6631 392.152 37.7464 392.476 37.8483L391.92 40.0153L391.587 40.2098C391.328 40.0709 391.041 39.9505 390.727 39.8486C390.421 39.7467 390.107 39.668 389.783 39.6124C389.468 39.5476 389.158 39.5013 388.853 39.4735C388.547 39.4365 388.279 39.418 388.048 39.418C387.622 39.418 387.233 39.4643 386.882 39.5569C386.539 39.6495 386.243 39.7838 385.993 39.9597C385.744 40.1264 385.549 40.3348 385.41 40.5848C385.272 40.8256 385.202 41.1034 385.202 41.4183C385.202 41.8258 385.313 42.1638 385.535 42.4323C385.757 42.7009 386.054 42.9324 386.424 43.1269C386.794 43.3121 387.21 43.4742 387.673 43.6131C388.145 43.752 388.626 43.8955 389.117 44.0437C389.607 44.1919 390.084 44.3586 390.546 44.5438C391.018 44.729 391.439 44.9651 391.809 45.2522C392.18 45.5393 392.476 45.8912 392.698 46.3079C392.92 46.7154 393.031 47.2155 393.031 47.8082C393.031 48.5027 392.874 49.1417 392.559 49.7251C392.254 50.3086 391.828 50.8133 391.282 51.2393C390.745 51.6652 390.111 51.9986 389.38 52.2394C388.658 52.4709 387.881 52.5867 387.048 52.5867C386.336 52.5867 385.572 52.5033 384.758 52.3366C383.953 52.17 383.166 51.9384 382.398 51.6421L382.954 49.4195Z" fill="white"/>
<path d="M396.987 37.5844H399.624V52.3089H396.987V37.5844ZM398.319 34.3894C398.088 34.3894 397.871 34.3477 397.667 34.2644C397.463 34.181 397.288 34.0653 397.14 33.9171C396.992 33.7689 396.876 33.5976 396.793 33.4032C396.709 33.1994 396.668 32.9772 396.668 32.7364C396.668 32.4956 396.714 32.2687 396.806 32.0557C396.899 31.8427 397.019 31.6575 397.167 31.5001C397.325 31.3426 397.505 31.2223 397.709 31.1389C397.922 31.0463 398.144 31 398.375 31C398.597 31 398.805 31.0463 399 31.1389C399.203 31.2223 399.379 31.3426 399.527 31.5001C399.675 31.6575 399.791 31.8427 399.874 32.0557C399.957 32.2595 399.999 32.4771 399.999 32.7086C399.999 32.9586 399.953 33.1902 399.86 33.4032C399.768 33.6069 399.643 33.7828 399.485 33.931C399.337 34.0699 399.162 34.181 398.958 34.2644C398.754 34.3477 398.542 34.3894 398.319 34.3894Z" fill="white"/>
<path d="M408.411 53.1423C408.17 53.2627 407.911 53.4109 407.633 53.5868C407.365 53.7628 407.115 53.9573 406.884 54.1703C406.652 54.3925 406.458 54.6333 406.301 54.8926C406.143 55.1612 406.065 55.439 406.065 55.7261C406.065 56.0224 406.153 56.3002 406.329 56.5595C406.514 56.8281 406.777 57.0596 407.12 57.2541C407.471 57.4486 407.902 57.6014 408.411 57.7125C408.92 57.8329 409.503 57.8931 410.16 57.8931C410.909 57.8931 411.58 57.819 412.172 57.6708C412.765 57.5226 413.264 57.3189 413.671 57.0596C414.079 56.8003 414.389 56.4993 414.601 56.1567C414.814 55.8233 414.921 55.4668 414.921 55.0871C414.921 54.7444 414.837 54.4481 414.671 54.198C414.504 53.9573 414.278 53.7582 413.991 53.6007C413.713 53.4433 413.385 53.3275 413.005 53.2535C412.635 53.1794 412.246 53.1423 411.839 53.1423H408.411ZM406.509 52.8645C406.222 52.7719 405.954 52.6561 405.704 52.5172C405.454 52.3783 405.237 52.2255 405.052 52.0588C404.866 51.8829 404.718 51.6884 404.607 51.4754C404.506 51.2531 404.455 51.017 404.455 50.767C404.455 50.4614 404.529 50.1743 404.677 49.9057C404.834 49.6279 405.033 49.364 405.274 49.1139C405.523 48.8546 405.801 48.6138 406.106 48.3916C406.421 48.1601 406.74 47.9378 407.064 47.7248C406.037 47.2247 405.283 46.5672 404.802 45.7523C404.33 44.9374 404.094 44.053 404.094 43.0991C404.094 42.5064 404.177 41.9508 404.344 41.4322C404.519 40.9136 404.76 40.4413 405.065 40.0153C405.371 39.58 405.727 39.1957 406.134 38.8623C406.541 38.5289 406.981 38.2465 407.453 38.015C407.925 37.7835 408.415 37.6075 408.924 37.4871C409.442 37.3667 409.956 37.3065 410.465 37.3065C411.076 37.3065 411.668 37.3853 412.242 37.5427C412.815 37.7001 413.297 37.9039 413.685 38.1539C413.833 38.0705 414.014 37.9918 414.227 37.9177C414.449 37.8437 414.68 37.7835 414.921 37.7372C415.161 37.6909 415.402 37.6538 415.642 37.626C415.892 37.5982 416.124 37.5844 416.336 37.5844H418.835L418.28 39.668H415.004C415.069 39.7051 415.161 39.8116 415.282 39.9875C415.411 40.1542 415.536 40.3765 415.656 40.6543C415.786 40.9228 415.897 41.2377 415.989 41.5989C416.091 41.96 416.142 42.3444 416.142 42.7518C416.142 43.5019 415.962 44.2104 415.601 44.8772C415.249 45.5347 414.782 46.1088 414.199 46.5996C413.625 47.0905 412.963 47.4794 412.214 47.7665C411.474 48.0536 410.715 48.1971 409.938 48.1971C409.734 48.1971 409.53 48.1879 409.327 48.1693C409.123 48.1508 408.906 48.1277 408.674 48.0999C408.508 48.2017 408.327 48.3175 408.133 48.4472C407.948 48.5768 407.777 48.7203 407.619 48.8778C407.471 49.0259 407.346 49.188 407.245 49.364C407.143 49.5307 407.092 49.7066 407.092 49.8918C407.092 50.1882 407.226 50.4289 407.495 50.6142C407.772 50.7994 408.147 50.892 408.619 50.892H412.547C413.213 50.892 413.843 50.98 414.435 51.1559C415.027 51.3226 415.541 51.568 415.976 51.8921C416.42 52.207 416.771 52.5867 417.031 53.0312C417.29 53.4757 417.419 53.9665 417.419 54.5037C417.419 55.1334 417.239 55.7724 416.878 56.4206C416.517 57.0781 415.994 57.6754 415.309 58.2126C414.625 58.7497 413.782 59.1849 412.783 59.5183C411.793 59.861 410.659 60.0323 409.382 60.0323C408.54 60.0323 407.754 59.9536 407.023 59.7961C406.301 59.6387 405.672 59.4165 405.135 59.1294C404.607 58.8423 404.191 58.495 403.886 58.0875C403.58 57.6801 403.427 57.2263 403.427 56.7262C403.427 56.4206 403.483 56.1243 403.594 55.8372C403.714 55.5501 403.862 55.2816 404.038 55.0315C404.223 54.7815 404.427 54.5453 404.649 54.3231C404.88 54.1008 405.107 53.8971 405.329 53.7119C405.56 53.5359 405.778 53.3738 405.982 53.2257C406.194 53.0868 406.37 52.9664 406.509 52.8645ZM406.592 42.6685C406.592 43.1686 406.68 43.6362 406.856 44.0715C407.032 44.5067 407.272 44.8864 407.578 45.2105C407.892 45.5254 408.267 45.7754 408.702 45.9607C409.137 46.1366 409.614 46.2246 410.132 46.2246C410.622 46.2246 411.08 46.1412 411.506 45.9745C411.932 45.8079 412.302 45.5763 412.616 45.28C412.94 44.9837 413.19 44.6271 413.366 44.2104C413.551 43.7844 413.644 43.3121 413.644 42.7935C413.644 42.2934 413.556 41.8304 413.38 41.4044C413.204 40.9691 412.959 40.5987 412.644 40.2931C412.33 39.9782 411.955 39.7328 411.52 39.5569C411.085 39.3717 410.608 39.2791 410.09 39.2791C409.6 39.2791 409.142 39.3624 408.716 39.5291C408.3 39.6865 407.929 39.9134 407.606 40.2098C407.291 40.4968 407.041 40.8534 406.856 41.2794C406.68 41.6961 406.592 42.1591 406.592 42.6685Z" fill="white"/>
<path d="M421.708 37.5844H423.763L424.179 40.1403C424.503 39.8347 424.873 39.5152 425.289 39.1818C425.706 38.8484 426.155 38.5428 426.636 38.265C427.126 37.9872 427.645 37.7603 428.191 37.5844C428.737 37.3991 429.296 37.3065 429.87 37.3065C430.546 37.3065 431.152 37.4362 431.688 37.6955C432.234 37.9548 432.697 38.3206 433.077 38.7929C433.465 39.2559 433.761 39.8116 433.965 40.4598C434.178 41.0988 434.284 41.798 434.284 42.5574V52.3089H431.647V42.8074C431.647 42.2703 431.568 41.798 431.411 41.3905C431.263 40.9738 431.055 40.6311 430.786 40.3626C430.518 40.0847 430.199 39.8764 429.828 39.7375C429.458 39.5986 429.056 39.5291 428.621 39.5291C427.853 39.5291 427.126 39.7328 426.442 40.1403C425.757 40.5478 425.058 41.0849 424.346 41.7517V52.3089H421.708V37.5844Z" fill="white"/>
<path fill-rule="evenodd" clip-rule="evenodd" d="M354.043 59.6582C360.429 59.6582 365.893 63.6095 368.127 69.2026C368.203 69.3935 368.276 69.5863 368.344 69.781H419.572C427.417 69.781 433.87 75.7436 434.654 83.3873C440.545 86.3623 444.138 93.0521 442.673 100.057L437.258 125.937C435.787 132.966 429.594 138 422.418 138H351.161C342.788 138 336 131.207 336 122.827V74.8309C336 72.8422 336.382 70.9429 337.077 69.2026C339.311 63.6095 344.775 59.6582 351.161 59.6582H354.043ZM426.679 90.0305V89.8348H359.649C356.26 89.8348 353.343 92.2292 352.679 95.5549L347.517 121.435C346.64 125.835 350.003 129.939 354.487 129.939H419.572C419.784 129.939 419.994 129.93 420.201 129.912L420.196 129.939H422.418C425.782 129.939 428.685 127.58 429.374 124.285L434.789 98.4047C435.714 93.9862 432.344 89.8348 427.833 89.8348H426.711L426.679 90.0305ZM419.572 77.8415C422.355 77.8415 424.765 79.4425 425.931 81.7743H359.649C352.42 81.7743 346.196 86.8823 344.781 93.977L344.054 97.6184V73.8826C344.054 69.0381 347.979 65.1109 352.82 65.1109C357.66 65.1109 361.585 69.0381 361.585 73.8826V77.8415H419.572Z" fill="#373737"/>
<path d="M336.056 69.781H336V71.0898C336 70.6489 336.019 70.2124 336.056 69.781Z" fill="#373737"/>
</svg>
