<svg width="1000" height="515" viewBox="0 0 1000 515" fill="none" xmlns="http://www.w3.org/2000/svg">
<rect y="33" width="1000" height="482" rx="64" fill="#5D5D5D"/>
<rect x="514" y="490" width="151" height="451" transform="rotate(-90 514 490)" fill="#4A4A4A"/>
<rect x="42" y="485" width="151" height="451" transform="rotate(-90 42 485)" fill="#4A4A4A"/>
<mask id="path-4-inside-1_186_20" fill="white">
<rect width="1000" height="515" rx="16"/>
</mask>
<rect width="1000" height="515" rx="16" stroke="#373737" stroke-width="88" mask="url(#path-4-inside-1_186_20)"/>
<rect x="30" y="323" width="941" height="38" fill="#373737"/>
<rect x="485" y="499" width="160" height="38" transform="rotate(-90 485 499)" fill="#373737"/>
<path d="M111.68 180.234V174H148.828V180.234H133.852V222H126.633V180.234H111.68ZM163.482 200.625V222H156.475V174H163.389V191.859H163.834C164.678 189.922 165.967 188.383 167.701 187.242C169.436 186.102 171.701 185.531 174.498 185.531C176.967 185.531 179.123 186.039 180.967 187.055C182.826 188.07 184.264 189.586 185.279 191.602C186.311 193.602 186.826 196.102 186.826 199.102V222H179.818V199.945C179.818 197.305 179.139 195.258 177.779 193.805C176.42 192.336 174.529 191.602 172.107 191.602C170.451 191.602 168.967 191.953 167.654 192.656C166.357 193.359 165.334 194.391 164.584 195.75C163.85 197.094 163.482 198.719 163.482 200.625ZM196.178 222V186H203.186V222H196.178ZM199.717 180.445C198.498 180.445 197.451 180.039 196.576 179.227C195.717 178.398 195.287 177.414 195.287 176.273C195.287 175.117 195.717 174.133 196.576 173.32C197.451 172.492 198.498 172.078 199.717 172.078C200.936 172.078 201.975 172.492 202.834 173.32C203.709 174.133 204.146 175.117 204.146 176.273C204.146 177.414 203.709 178.398 202.834 179.227C201.975 180.039 200.936 180.445 199.717 180.445ZM239.59 194.789L233.238 195.914C232.973 195.102 232.551 194.328 231.973 193.594C231.41 192.859 230.645 192.258 229.676 191.789C228.707 191.32 227.496 191.086 226.043 191.086C224.059 191.086 222.402 191.531 221.074 192.422C219.746 193.297 219.082 194.43 219.082 195.82C219.082 197.023 219.527 197.992 220.418 198.727C221.309 199.461 222.746 200.062 224.73 200.531L230.449 201.844C233.762 202.609 236.23 203.789 237.855 205.383C239.48 206.977 240.293 209.047 240.293 211.594C240.293 213.75 239.668 215.672 238.418 217.359C237.184 219.031 235.457 220.344 233.238 221.297C231.035 222.25 228.48 222.727 225.574 222.727C221.543 222.727 218.254 221.867 215.707 220.148C213.16 218.414 211.598 215.953 211.02 212.766L217.793 211.734C218.215 213.5 219.082 214.836 220.395 215.742C221.707 216.633 223.418 217.078 225.527 217.078C227.824 217.078 229.66 216.602 231.035 215.648C232.41 214.68 233.098 213.5 233.098 212.109C233.098 210.984 232.676 210.039 231.832 209.273C231.004 208.508 229.73 207.93 228.012 207.539L221.918 206.203C218.559 205.438 216.074 204.219 214.465 202.547C212.871 200.875 212.074 198.758 212.074 196.195C212.074 194.07 212.668 192.211 213.855 190.617C215.043 189.023 216.684 187.781 218.777 186.891C220.871 185.984 223.27 185.531 225.973 185.531C229.863 185.531 232.926 186.375 235.16 188.062C237.395 189.734 238.871 191.977 239.59 194.789ZM292.441 194.789L286.09 195.914C285.824 195.102 285.402 194.328 284.824 193.594C284.262 192.859 283.496 192.258 282.527 191.789C281.559 191.32 280.348 191.086 278.895 191.086C276.91 191.086 275.254 191.531 273.926 192.422C272.598 193.297 271.934 194.43 271.934 195.82C271.934 197.023 272.379 197.992 273.27 198.727C274.16 199.461 275.598 200.062 277.582 200.531L283.301 201.844C286.613 202.609 289.082 203.789 290.707 205.383C292.332 206.977 293.145 209.047 293.145 211.594C293.145 213.75 292.52 215.672 291.27 217.359C290.035 219.031 288.309 220.344 286.09 221.297C283.887 222.25 281.332 222.727 278.426 222.727C274.395 222.727 271.105 221.867 268.559 220.148C266.012 218.414 264.449 215.953 263.871 212.766L270.645 211.734C271.066 213.5 271.934 214.836 273.246 215.742C274.559 216.633 276.27 217.078 278.379 217.078C280.676 217.078 282.512 216.602 283.887 215.648C285.262 214.68 285.949 213.5 285.949 212.109C285.949 210.984 285.527 210.039 284.684 209.273C283.855 208.508 282.582 207.93 280.863 207.539L274.77 206.203C271.41 205.438 268.926 204.219 267.316 202.547C265.723 200.875 264.926 198.758 264.926 196.195C264.926 194.07 265.52 192.211 266.707 190.617C267.895 189.023 269.535 187.781 271.629 186.891C273.723 185.984 276.121 185.531 278.824 185.531C282.715 185.531 285.777 186.375 288.012 188.062C290.246 189.734 291.723 191.977 292.441 194.789ZM300.85 222V186H307.857V222H300.85ZM304.389 180.445C303.17 180.445 302.123 180.039 301.248 179.227C300.389 178.398 299.959 177.414 299.959 176.273C299.959 175.117 300.389 174.133 301.248 173.32C302.123 172.492 303.17 172.078 304.389 172.078C305.607 172.078 306.646 172.492 307.506 173.32C308.381 174.133 308.818 175.117 308.818 176.273C308.818 177.414 308.381 178.398 307.506 179.227C306.646 180.039 305.607 180.445 304.389 180.445ZM334.09 186V191.625H314.426V186H334.09ZM319.699 177.375H326.707V211.43C326.707 212.789 326.91 213.812 327.316 214.5C327.723 215.172 328.246 215.633 328.887 215.883C329.543 216.117 330.254 216.234 331.02 216.234C331.582 216.234 332.074 216.195 332.496 216.117C332.918 216.039 333.246 215.977 333.48 215.93L334.746 221.719C334.34 221.875 333.762 222.031 333.012 222.188C332.262 222.359 331.324 222.453 330.199 222.469C328.355 222.5 326.637 222.172 325.043 221.484C323.449 220.797 322.16 219.734 321.176 218.297C320.191 216.859 319.699 215.055 319.699 212.883V177.375ZM356.971 222.727C353.424 222.727 350.369 221.969 347.807 220.453C345.26 218.922 343.291 216.773 341.9 214.008C340.525 211.227 339.838 207.969 339.838 204.234C339.838 200.547 340.525 197.297 341.9 194.484C343.291 191.672 345.229 189.477 347.713 187.898C350.213 186.32 353.135 185.531 356.479 185.531C358.51 185.531 360.479 185.867 362.385 186.539C364.291 187.211 366.002 188.266 367.518 189.703C369.033 191.141 370.229 193.008 371.104 195.305C371.979 197.586 372.416 200.359 372.416 203.625V206.109H343.799V200.859H365.549C365.549 199.016 365.174 197.383 364.424 195.961C363.674 194.523 362.619 193.391 361.26 192.562C359.916 191.734 358.338 191.32 356.525 191.32C354.557 191.32 352.838 191.805 351.369 192.773C349.916 193.727 348.791 194.977 347.994 196.523C347.213 198.055 346.822 199.719 346.822 201.516V205.617C346.822 208.023 347.244 210.07 348.088 211.758C348.947 213.445 350.143 214.734 351.674 215.625C353.205 216.5 354.994 216.937 357.041 216.937C358.369 216.937 359.58 216.75 360.674 216.375C361.768 215.984 362.713 215.406 363.51 214.641C364.307 213.875 364.916 212.93 365.338 211.805L371.971 213C371.439 214.953 370.486 216.664 369.111 218.133C367.752 219.586 366.041 220.719 363.979 221.531C361.932 222.328 359.596 222.727 356.971 222.727ZM404.666 200.625V222H397.658V174H404.572V191.859H405.018C405.861 189.922 407.15 188.383 408.885 187.242C410.619 186.102 412.885 185.531 415.682 185.531C418.15 185.531 420.307 186.039 422.15 187.055C424.01 188.07 425.447 189.586 426.463 191.602C427.494 193.602 428.01 196.102 428.01 199.102V222H421.002V199.945C421.002 197.305 420.322 195.258 418.963 193.805C417.604 192.336 415.713 191.602 413.291 191.602C411.635 191.602 410.15 191.953 408.838 192.656C407.541 193.359 406.518 194.391 405.768 195.75C405.033 197.094 404.666 198.719 404.666 200.625ZM447.838 222.797C445.557 222.797 443.494 222.375 441.65 221.531C439.807 220.672 438.346 219.43 437.268 217.805C436.205 216.18 435.674 214.187 435.674 211.828C435.674 209.797 436.064 208.125 436.846 206.812C437.627 205.5 438.682 204.461 440.01 203.695C441.338 202.93 442.822 202.352 444.463 201.961C446.104 201.57 447.775 201.273 449.479 201.07C451.635 200.82 453.385 200.617 454.729 200.461C456.072 200.289 457.049 200.016 457.658 199.641C458.268 199.266 458.572 198.656 458.572 197.812V197.648C458.572 195.602 457.994 194.016 456.838 192.891C455.697 191.766 453.994 191.203 451.729 191.203C449.369 191.203 447.51 191.727 446.15 192.773C444.807 193.805 443.877 194.953 443.361 196.219L436.775 194.719C437.557 192.531 438.697 190.766 440.197 189.422C441.713 188.062 443.455 187.078 445.424 186.469C447.393 185.844 449.463 185.531 451.635 185.531C453.072 185.531 454.596 185.703 456.205 186.047C457.83 186.375 459.346 186.984 460.752 187.875C462.174 188.766 463.338 190.039 464.244 191.695C465.15 193.336 465.604 195.469 465.604 198.094V222H458.76V217.078H458.479C458.025 217.984 457.346 218.875 456.439 219.75C455.533 220.625 454.369 221.352 452.947 221.93C451.525 222.508 449.822 222.797 447.838 222.797ZM449.361 217.172C451.299 217.172 452.955 216.789 454.33 216.023C455.721 215.258 456.775 214.258 457.494 213.023C458.229 211.773 458.596 210.437 458.596 209.016V204.375C458.346 204.625 457.861 204.859 457.143 205.078C456.439 205.281 455.635 205.461 454.729 205.617C453.822 205.758 452.939 205.891 452.08 206.016C451.221 206.125 450.502 206.219 449.924 206.297C448.564 206.469 447.322 206.758 446.197 207.164C445.088 207.57 444.197 208.156 443.525 208.922C442.869 209.672 442.541 210.672 442.541 211.922C442.541 213.656 443.182 214.969 444.463 215.859C445.744 216.734 447.377 217.172 449.361 217.172ZM501.914 194.789L495.563 195.914C495.297 195.102 494.875 194.328 494.297 193.594C493.734 192.859 492.969 192.258 492 191.789C491.031 191.32 489.82 191.086 488.367 191.086C486.383 191.086 484.727 191.531 483.398 192.422C482.07 193.297 481.406 194.43 481.406 195.82C481.406 197.023 481.852 197.992 482.742 198.727C483.633 199.461 485.07 200.062 487.055 200.531L492.773 201.844C496.086 202.609 498.555 203.789 500.18 205.383C501.805 206.977 502.617 209.047 502.617 211.594C502.617 213.75 501.992 215.672 500.742 217.359C499.508 219.031 497.781 220.344 495.563 221.297C493.359 222.25 490.805 222.727 487.898 222.727C483.867 222.727 480.578 221.867 478.031 220.148C475.484 218.414 473.922 215.953 473.344 212.766L480.117 211.734C480.539 213.5 481.406 214.836 482.719 215.742C484.031 216.633 485.742 217.078 487.852 217.078C490.148 217.078 491.984 216.602 493.359 215.648C494.734 214.68 495.422 213.5 495.422 212.109C495.422 210.984 495 210.039 494.156 209.273C493.328 208.508 492.055 207.93 490.336 207.539L484.242 206.203C480.883 205.438 478.398 204.219 476.789 202.547C475.195 200.875 474.398 198.758 474.398 196.195C474.398 194.07 474.992 192.211 476.18 190.617C477.367 189.023 479.008 187.781 481.102 186.891C483.195 185.984 485.594 185.531 488.297 185.531C492.188 185.531 495.25 186.375 497.484 188.062C499.719 189.734 501.195 191.977 501.914 194.789ZM528.352 222V174H535.359V191.836H535.781C536.188 191.086 536.773 190.219 537.539 189.234C538.305 188.25 539.367 187.391 540.727 186.656C542.086 185.906 543.883 185.531 546.117 185.531C549.023 185.531 551.617 186.266 553.898 187.734C556.18 189.203 557.969 191.32 559.266 194.086C560.578 196.852 561.234 200.18 561.234 204.07C561.234 207.961 560.586 211.297 559.289 214.078C557.992 216.844 556.211 218.977 553.945 220.477C551.68 221.961 549.094 222.703 546.188 222.703C544 222.703 542.211 222.336 540.82 221.602C539.445 220.867 538.367 220.008 537.586 219.023C536.805 218.039 536.203 217.164 535.781 216.398H535.195V222H528.352ZM535.219 204C535.219 206.531 535.586 208.75 536.32 210.656C537.055 212.562 538.117 214.055 539.508 215.133C540.898 216.195 542.602 216.727 544.617 216.727C546.711 216.727 548.461 216.172 549.867 215.062C551.273 213.937 552.336 212.414 553.055 210.492C553.789 208.57 554.156 206.406 554.156 204C554.156 201.625 553.797 199.492 553.078 197.602C552.375 195.711 551.313 194.219 549.891 193.125C548.484 192.031 546.727 191.484 544.617 191.484C542.586 191.484 540.867 192.008 539.461 193.055C538.07 194.102 537.016 195.562 536.297 197.437C535.578 199.312 535.219 201.5 535.219 204ZM579.58 222.797C577.299 222.797 575.236 222.375 573.393 221.531C571.549 220.672 570.088 219.43 569.01 217.805C567.947 216.18 567.416 214.187 567.416 211.828C567.416 209.797 567.807 208.125 568.588 206.812C569.369 205.5 570.424 204.461 571.752 203.695C573.08 202.93 574.564 202.352 576.205 201.961C577.846 201.57 579.518 201.273 581.221 201.07C583.377 200.82 585.127 200.617 586.471 200.461C587.814 200.289 588.791 200.016 589.4 199.641C590.01 199.266 590.314 198.656 590.314 197.812V197.648C590.314 195.602 589.736 194.016 588.58 192.891C587.439 191.766 585.736 191.203 583.471 191.203C581.111 191.203 579.252 191.727 577.893 192.773C576.549 193.805 575.619 194.953 575.104 196.219L568.518 194.719C569.299 192.531 570.439 190.766 571.939 189.422C573.455 188.062 575.197 187.078 577.166 186.469C579.135 185.844 581.205 185.531 583.377 185.531C584.814 185.531 586.338 185.703 587.947 186.047C589.572 186.375 591.088 186.984 592.494 187.875C593.916 188.766 595.08 190.039 595.986 191.695C596.893 193.336 597.346 195.469 597.346 198.094V222H590.502V217.078H590.221C589.768 217.984 589.088 218.875 588.182 219.75C587.275 220.625 586.111 221.352 584.689 221.93C583.268 222.508 581.564 222.797 579.58 222.797ZM581.104 217.172C583.041 217.172 584.697 216.789 586.072 216.023C587.463 215.258 588.518 214.258 589.236 213.023C589.971 211.773 590.338 210.437 590.338 209.016V204.375C590.088 204.625 589.604 204.859 588.885 205.078C588.182 205.281 587.377 205.461 586.471 205.617C585.564 205.758 584.682 205.891 583.822 206.016C582.963 206.125 582.244 206.219 581.666 206.297C580.307 206.469 579.064 206.758 577.939 207.164C576.83 207.57 575.939 208.156 575.268 208.922C574.611 209.672 574.283 210.672 574.283 211.922C574.283 213.656 574.924 214.969 576.205 215.859C577.486 216.734 579.119 217.172 581.104 217.172ZM621.844 222.727C618.359 222.727 615.359 221.938 612.844 220.359C610.344 218.766 608.422 216.57 607.078 213.773C605.734 210.977 605.062 207.773 605.062 204.164C605.062 200.508 605.75 197.281 607.125 194.484C608.5 191.672 610.438 189.477 612.938 187.898C615.438 186.32 618.383 185.531 621.773 185.531C624.508 185.531 626.945 186.039 629.086 187.055C631.227 188.055 632.953 189.461 634.266 191.273C635.594 193.086 636.383 195.203 636.633 197.625H629.812C629.438 195.937 628.578 194.484 627.234 193.266C625.906 192.047 624.125 191.437 621.891 191.437C619.938 191.437 618.227 191.953 616.758 192.984C615.305 194 614.172 195.453 613.359 197.344C612.547 199.219 612.141 201.437 612.141 204C612.141 206.625 612.539 208.891 613.336 210.797C614.133 212.703 615.258 214.18 616.711 215.227C618.18 216.273 619.906 216.797 621.891 216.797C623.219 216.797 624.422 216.555 625.5 216.07C626.594 215.57 627.508 214.859 628.242 213.937C628.992 213.016 629.516 211.906 629.812 210.609H636.633C636.383 212.937 635.625 215.016 634.359 216.844C633.094 218.672 631.398 220.109 629.273 221.156C627.164 222.203 624.688 222.727 621.844 222.727ZM650.572 209.789L650.525 201.234H651.744L666.088 186H674.479L658.119 203.344H657.018L650.572 209.789ZM644.127 222V174H651.135V222H644.127ZM666.861 222L653.971 204.891L658.799 199.992L675.463 222H666.861ZM694.477 236.25C691.617 236.25 689.156 235.875 687.094 235.125C685.047 234.375 683.375 233.383 682.078 232.148C680.781 230.914 679.813 229.563 679.172 228.094L685.195 225.609C685.617 226.297 686.18 227.023 686.883 227.789C687.602 228.57 688.57 229.234 689.789 229.781C691.023 230.328 692.609 230.602 694.547 230.602C697.203 230.602 699.398 229.953 701.133 228.656C702.867 227.375 703.734 225.328 703.734 222.516V215.437H703.289C702.867 216.203 702.258 217.055 701.461 217.992C700.68 218.93 699.602 219.742 698.227 220.43C696.852 221.117 695.063 221.461 692.859 221.461C690.016 221.461 687.453 220.797 685.172 219.469C682.906 218.125 681.109 216.148 679.781 213.539C678.469 210.914 677.813 207.687 677.813 203.859C677.813 200.031 678.461 196.75 679.758 194.016C681.07 191.281 682.867 189.187 685.148 187.734C687.43 186.266 690.016 185.531 692.906 185.531C695.141 185.531 696.945 185.906 698.32 186.656C699.695 187.391 700.766 188.25 701.531 189.234C702.313 190.219 702.914 191.086 703.336 191.836H703.852V186H710.719V222.797C710.719 225.891 710 228.43 708.562 230.414C707.125 232.398 705.18 233.867 702.727 234.82C700.289 235.773 697.539 236.25 694.477 236.25ZM694.406 215.648C696.422 215.648 698.125 215.18 699.516 214.242C700.922 213.289 701.984 211.93 702.703 210.164C703.438 208.383 703.805 206.25 703.805 203.766C703.805 201.344 703.445 199.211 702.727 197.367C702.008 195.523 700.953 194.086 699.563 193.055C698.172 192.008 696.453 191.484 694.406 191.484C692.297 191.484 690.539 192.031 689.133 193.125C687.727 194.203 686.664 195.672 685.945 197.531C685.242 199.391 684.891 201.469 684.891 203.766C684.891 206.125 685.25 208.195 685.969 209.977C686.688 211.758 687.75 213.148 689.156 214.148C690.578 215.148 692.328 215.648 694.406 215.648ZM720.117 222V186H726.891V191.719H727.266C727.922 189.781 729.078 188.258 730.734 187.148C732.406 186.023 734.297 185.461 736.406 185.461C736.844 185.461 737.359 185.477 737.953 185.508C738.563 185.539 739.039 185.578 739.383 185.625V192.328C739.102 192.25 738.602 192.164 737.883 192.07C737.164 191.961 736.445 191.906 735.727 191.906C734.07 191.906 732.594 192.258 731.297 192.961C730.016 193.648 729 194.609 728.25 195.844C727.5 197.062 727.125 198.453 727.125 200.016V222H720.117ZM759.322 222.727C755.947 222.727 753.002 221.953 750.486 220.406C747.971 218.859 746.018 216.695 744.627 213.914C743.236 211.133 742.541 207.883 742.541 204.164C742.541 200.43 743.236 197.164 744.627 194.367C746.018 191.57 747.971 189.398 750.486 187.852C753.002 186.305 755.947 185.531 759.322 185.531C762.697 185.531 765.643 186.305 768.158 187.852C770.674 189.398 772.627 191.57 774.018 194.367C775.408 197.164 776.104 200.43 776.104 204.164C776.104 207.883 775.408 211.133 774.018 213.914C772.627 216.695 770.674 218.859 768.158 220.406C765.643 221.953 762.697 222.727 759.322 222.727ZM759.346 216.844C761.533 216.844 763.346 216.266 764.783 215.109C766.221 213.953 767.283 212.414 767.971 210.492C768.674 208.57 769.025 206.453 769.025 204.141C769.025 201.844 768.674 199.734 767.971 197.812C767.283 195.875 766.221 194.32 764.783 193.148C763.346 191.977 761.533 191.391 759.346 191.391C757.143 191.391 755.314 191.977 753.861 193.148C752.424 194.32 751.354 195.875 750.65 197.812C749.963 199.734 749.619 201.844 749.619 204.141C749.619 206.453 749.963 208.57 750.65 210.492C751.354 212.414 752.424 213.953 753.861 215.109C755.314 216.266 757.143 216.844 759.346 216.844ZM806.73 207.07V186H813.762V222H806.871V215.766H806.496C805.668 217.688 804.34 219.289 802.512 220.57C800.699 221.836 798.441 222.469 795.738 222.469C793.426 222.469 791.379 221.961 789.598 220.945C787.832 219.914 786.441 218.391 785.426 216.375C784.426 214.359 783.926 211.867 783.926 208.898V186H790.934V208.055C790.934 210.508 791.613 212.461 792.973 213.914C794.332 215.367 796.098 216.094 798.27 216.094C799.582 216.094 800.887 215.766 802.184 215.109C803.496 214.453 804.582 213.461 805.441 212.133C806.316 210.805 806.746 209.117 806.73 207.07ZM830.186 200.625V222H823.178V186H829.904V191.859H830.35C831.178 189.953 832.475 188.422 834.24 187.266C836.021 186.109 838.264 185.531 840.967 185.531C843.42 185.531 845.568 186.047 847.412 187.078C849.256 188.094 850.686 189.609 851.701 191.625C852.717 193.641 853.225 196.133 853.225 199.102V222H846.217V199.945C846.217 197.336 845.537 195.297 844.178 193.828C842.818 192.344 840.951 191.602 838.576 191.602C836.951 191.602 835.506 191.953 834.24 192.656C832.99 193.359 831.998 194.391 831.264 195.75C830.545 197.094 830.186 198.719 830.186 200.625ZM876.1 222.703C873.193 222.703 870.6 221.961 868.318 220.477C866.053 218.977 864.271 216.844 862.975 214.078C861.693 211.297 861.053 207.961 861.053 204.07C861.053 200.18 861.701 196.852 862.998 194.086C864.311 191.32 866.107 189.203 868.389 187.734C870.67 186.266 873.256 185.531 876.146 185.531C878.381 185.531 880.178 185.906 881.537 186.656C882.912 187.391 883.975 188.25 884.725 189.234C885.49 190.219 886.084 191.086 886.506 191.836H886.928V174H893.936V222H887.092V216.398H886.506C886.084 217.164 885.475 218.039 884.678 219.023C883.896 220.008 882.818 220.867 881.443 221.602C880.068 222.336 878.287 222.703 876.1 222.703ZM877.646 216.727C879.662 216.727 881.365 216.195 882.756 215.133C884.162 214.055 885.225 212.562 885.943 210.656C886.678 208.75 887.045 206.531 887.045 204C887.045 201.5 886.686 199.312 885.967 197.437C885.248 195.562 884.193 194.102 882.803 193.055C881.412 192.008 879.693 191.484 877.646 191.484C875.537 191.484 873.779 192.031 872.373 193.125C870.967 194.219 869.904 195.711 869.186 197.602C868.482 199.492 868.131 201.625 868.131 204C868.131 206.406 868.49 208.57 869.209 210.492C869.928 212.414 870.99 213.937 872.396 215.062C873.818 216.172 875.568 216.727 877.646 216.727ZM234.914 302V266H241.641V271.859H242.086C242.836 269.875 244.063 268.328 245.766 267.219C247.469 266.094 249.508 265.531 251.883 265.531C254.289 265.531 256.305 266.094 257.93 267.219C259.57 268.344 260.781 269.891 261.563 271.859H261.938C262.797 269.937 264.164 268.406 266.039 267.266C267.914 266.109 270.148 265.531 272.742 265.531C276.008 265.531 278.672 266.555 280.734 268.602C282.813 270.648 283.852 273.734 283.852 277.859V302H276.844V278.516C276.844 276.078 276.18 274.312 274.852 273.219C273.523 272.125 271.938 271.578 270.094 271.578C267.813 271.578 266.039 272.281 264.773 273.687C263.508 275.078 262.875 276.867 262.875 279.055V302H255.891V278.07C255.891 276.117 255.281 274.547 254.063 273.359C252.844 272.172 251.258 271.578 249.305 271.578C247.977 271.578 246.75 271.93 245.625 272.633C244.516 273.32 243.617 274.281 242.93 275.516C242.258 276.75 241.922 278.18 241.922 279.805V302H234.914ZM316.049 287.07V266H323.08V302H316.189V295.766H315.814C314.986 297.688 313.658 299.289 311.83 300.57C310.018 301.836 307.76 302.469 305.057 302.469C302.744 302.469 300.697 301.961 298.916 300.945C297.15 299.914 295.76 298.391 294.744 296.375C293.744 294.359 293.244 291.867 293.244 288.898V266H300.252V288.055C300.252 290.508 300.932 292.461 302.291 293.914C303.65 295.367 305.416 296.094 307.588 296.094C308.9 296.094 310.205 295.766 311.502 295.109C312.814 294.453 313.9 293.461 314.76 292.133C315.635 290.805 316.064 289.117 316.049 287.07ZM359.473 274.789L353.121 275.914C352.855 275.102 352.434 274.328 351.855 273.594C351.293 272.859 350.527 272.258 349.559 271.789C348.59 271.32 347.379 271.086 345.926 271.086C343.941 271.086 342.285 271.531 340.957 272.422C339.629 273.297 338.965 274.43 338.965 275.82C338.965 277.023 339.41 277.992 340.301 278.727C341.191 279.461 342.629 280.062 344.613 280.531L350.332 281.844C353.645 282.609 356.113 283.789 357.738 285.383C359.363 286.977 360.176 289.047 360.176 291.594C360.176 293.75 359.551 295.672 358.301 297.359C357.066 299.031 355.34 300.344 353.121 301.297C350.918 302.25 348.363 302.727 345.457 302.727C341.426 302.727 338.137 301.867 335.59 300.148C333.043 298.414 331.48 295.953 330.902 292.766L337.676 291.734C338.098 293.5 338.965 294.836 340.277 295.742C341.59 296.633 343.301 297.078 345.41 297.078C347.707 297.078 349.543 296.602 350.918 295.648C352.293 294.68 352.98 293.5 352.98 292.109C352.98 290.984 352.559 290.039 351.715 289.273C350.887 288.508 349.613 287.93 347.895 287.539L341.801 286.203C338.441 285.438 335.957 284.219 334.348 282.547C332.754 280.875 331.957 278.758 331.957 276.195C331.957 274.07 332.551 272.211 333.738 270.617C334.926 269.023 336.566 267.781 338.66 266.891C340.754 265.984 343.152 265.531 345.855 265.531C349.746 265.531 352.809 266.375 355.043 268.062C357.277 269.734 358.754 271.977 359.473 274.789ZM367.881 302V266H374.889V302H367.881ZM371.42 260.445C370.201 260.445 369.154 260.039 368.279 259.227C367.42 258.398 366.99 257.414 366.99 256.273C366.99 255.117 367.42 254.133 368.279 253.32C369.154 252.492 370.201 252.078 371.42 252.078C372.639 252.078 373.678 252.492 374.537 253.32C375.412 254.133 375.85 255.117 375.85 256.273C375.85 257.414 375.412 258.398 374.537 259.227C373.678 260.039 372.639 260.445 371.42 260.445ZM399.48 302.727C395.996 302.727 392.996 301.938 390.48 300.359C387.98 298.766 386.059 296.57 384.715 293.773C383.371 290.977 382.699 287.773 382.699 284.164C382.699 280.508 383.387 277.281 384.762 274.484C386.137 271.672 388.074 269.477 390.574 267.898C393.074 266.32 396.02 265.531 399.41 265.531C402.145 265.531 404.582 266.039 406.723 267.055C408.863 268.055 410.59 269.461 411.902 271.273C413.23 273.086 414.02 275.203 414.27 277.625H407.449C407.074 275.937 406.215 274.484 404.871 273.266C403.543 272.047 401.762 271.437 399.527 271.437C397.574 271.437 395.863 271.953 394.395 272.984C392.941 274 391.809 275.453 390.996 277.344C390.184 279.219 389.777 281.437 389.777 284C389.777 286.625 390.176 288.891 390.973 290.797C391.77 292.703 392.895 294.18 394.348 295.227C395.816 296.273 397.543 296.797 399.527 296.797C400.855 296.797 402.059 296.555 403.137 296.07C404.23 295.57 405.145 294.859 405.879 293.937C406.629 293.016 407.152 291.906 407.449 290.609H414.27C414.02 292.937 413.262 295.016 411.996 296.844C410.73 298.672 409.035 300.109 406.91 301.156C404.801 302.203 402.324 302.727 399.48 302.727ZM445.676 289.789L445.629 281.234H446.848L461.191 266H469.582L453.223 283.344H452.121L445.676 289.789ZM439.23 302V254H446.238V302H439.23ZM461.965 302L449.074 284.891L453.902 279.992L470.566 302H461.965ZM490.002 302.727C486.455 302.727 483.4 301.969 480.838 300.453C478.291 298.922 476.322 296.773 474.932 294.008C473.557 291.227 472.869 287.969 472.869 284.234C472.869 280.547 473.557 277.297 474.932 274.484C476.322 271.672 478.26 269.477 480.744 267.898C483.244 266.32 486.166 265.531 489.51 265.531C491.541 265.531 493.51 265.867 495.416 266.539C497.322 267.211 499.033 268.266 500.549 269.703C502.064 271.141 503.26 273.008 504.135 275.305C505.01 277.586 505.447 280.359 505.447 283.625V286.109H476.83V280.859H498.58C498.58 279.016 498.205 277.383 497.455 275.961C496.705 274.523 495.65 273.391 494.291 272.562C492.947 271.734 491.369 271.32 489.557 271.32C487.588 271.32 485.869 271.805 484.4 272.773C482.947 273.727 481.822 274.977 481.025 276.523C480.244 278.055 479.854 279.719 479.854 281.516V285.617C479.854 288.023 480.275 290.07 481.119 291.758C481.979 293.445 483.174 294.734 484.705 295.625C486.236 296.5 488.025 296.937 490.072 296.937C491.4 296.937 492.611 296.75 493.705 296.375C494.799 295.984 495.744 295.406 496.541 294.641C497.338 293.875 497.947 292.93 498.369 291.805L505.002 293C504.471 294.953 503.518 296.664 502.143 298.133C500.783 299.586 499.072 300.719 497.01 301.531C494.963 302.328 492.627 302.727 490.002 302.727ZM528.738 302.727C525.191 302.727 522.137 301.969 519.574 300.453C517.027 298.922 515.059 296.773 513.668 294.008C512.293 291.227 511.605 287.969 511.605 284.234C511.605 280.547 512.293 277.297 513.668 274.484C515.059 271.672 516.996 269.477 519.48 267.898C521.98 266.32 524.902 265.531 528.246 265.531C530.277 265.531 532.246 265.867 534.152 266.539C536.059 267.211 537.77 268.266 539.285 269.703C540.801 271.141 541.996 273.008 542.871 275.305C543.746 277.586 544.184 280.359 544.184 283.625V286.109H515.566V280.859H537.316C537.316 279.016 536.941 277.383 536.191 275.961C535.441 274.523 534.387 273.391 533.027 272.562C531.684 271.734 530.105 271.32 528.293 271.32C526.324 271.32 524.605 271.805 523.137 272.773C521.684 273.727 520.559 274.977 519.762 276.523C518.98 278.055 518.59 279.719 518.59 281.516V285.617C518.59 288.023 519.012 290.07 519.855 291.758C520.715 293.445 521.91 294.734 523.441 295.625C524.973 296.5 526.762 296.937 528.809 296.937C530.137 296.937 531.348 296.75 532.441 296.375C533.535 295.984 534.48 295.406 535.277 294.641C536.074 293.875 536.684 292.93 537.105 291.805L543.738 293C543.207 294.953 542.254 296.664 540.879 298.133C539.52 299.586 537.809 300.719 535.746 301.531C533.699 302.328 531.363 302.727 528.738 302.727ZM551.959 315.5V266H558.803V271.836H559.389C559.795 271.086 560.381 270.219 561.146 269.234C561.912 268.25 562.975 267.391 564.334 266.656C565.693 265.906 567.49 265.531 569.725 265.531C572.631 265.531 575.225 266.266 577.506 267.734C579.787 269.203 581.576 271.32 582.873 274.086C584.186 276.852 584.842 280.18 584.842 284.07C584.842 287.961 584.193 291.297 582.896 294.078C581.6 296.844 579.818 298.977 577.553 300.477C575.287 301.961 572.701 302.703 569.795 302.703C567.607 302.703 565.818 302.336 564.428 301.602C563.053 300.867 561.975 300.008 561.193 299.023C560.412 298.039 559.811 297.164 559.389 296.398H558.967V315.5H551.959ZM558.826 284C558.826 286.531 559.193 288.75 559.928 290.656C560.662 292.562 561.725 294.055 563.115 295.133C564.506 296.195 566.209 296.727 568.225 296.727C570.318 296.727 572.068 296.172 573.475 295.062C574.881 293.937 575.943 292.414 576.662 290.492C577.396 288.57 577.764 286.406 577.764 284C577.764 281.625 577.404 279.492 576.686 277.602C575.982 275.711 574.92 274.219 573.498 273.125C572.092 272.031 570.334 271.484 568.225 271.484C566.193 271.484 564.475 272.008 563.068 273.055C561.678 274.102 560.623 275.562 559.904 277.437C559.186 279.312 558.826 281.5 558.826 284ZM610.16 302V266H617.168V302H610.16ZM613.699 260.445C612.48 260.445 611.434 260.039 610.559 259.227C609.699 258.398 609.27 257.414 609.27 256.273C609.27 255.117 609.699 254.133 610.559 253.32C611.434 252.492 612.48 252.078 613.699 252.078C614.918 252.078 615.957 252.492 616.816 253.32C617.691 254.133 618.129 255.117 618.129 256.273C618.129 257.414 617.691 258.398 616.816 259.227C615.957 260.039 614.918 260.445 613.699 260.445ZM643.4 266V271.625H623.736V266H643.4ZM629.01 257.375H636.018V291.43C636.018 292.789 636.221 293.812 636.627 294.5C637.033 295.172 637.557 295.633 638.197 295.883C638.854 296.117 639.564 296.234 640.33 296.234C640.893 296.234 641.385 296.195 641.807 296.117C642.229 296.039 642.557 295.977 642.791 295.93L644.057 301.719C643.65 301.875 643.072 302.031 642.322 302.188C641.572 302.359 640.635 302.453 639.51 302.469C637.666 302.5 635.947 302.172 634.354 301.484C632.76 300.797 631.471 299.734 630.486 298.297C629.502 296.859 629.01 295.055 629.01 292.883V257.375ZM683.783 302.727C680.408 302.727 677.463 301.953 674.947 300.406C672.432 298.859 670.479 296.695 669.088 293.914C667.697 291.133 667.002 287.883 667.002 284.164C667.002 280.43 667.697 277.164 669.088 274.367C670.479 271.57 672.432 269.398 674.947 267.852C677.463 266.305 680.408 265.531 683.783 265.531C687.158 265.531 690.104 266.305 692.619 267.852C695.135 269.398 697.088 271.57 698.479 274.367C699.869 277.164 700.564 280.43 700.564 284.164C700.564 287.883 699.869 291.133 698.479 293.914C697.088 296.695 695.135 298.859 692.619 300.406C690.104 301.953 687.158 302.727 683.783 302.727ZM683.807 296.844C685.994 296.844 687.807 296.266 689.244 295.109C690.682 293.953 691.744 292.414 692.432 290.492C693.135 288.57 693.486 286.453 693.486 284.141C693.486 281.844 693.135 279.734 692.432 277.812C691.744 275.875 690.682 274.32 689.244 273.148C687.807 271.977 685.994 271.391 683.807 271.391C681.604 271.391 679.775 271.977 678.322 273.148C676.885 274.32 675.814 275.875 675.111 277.812C674.424 279.734 674.08 281.844 674.08 284.141C674.08 286.453 674.424 288.57 675.111 290.492C675.814 292.414 676.885 293.953 678.322 295.109C679.775 296.266 681.604 296.844 683.807 296.844ZM715.395 280.625V302H708.387V266H715.113V271.859H715.559C716.387 269.953 717.684 268.422 719.449 267.266C721.23 266.109 723.473 265.531 726.176 265.531C728.629 265.531 730.777 266.047 732.621 267.078C734.465 268.094 735.895 269.609 736.91 271.625C737.926 273.641 738.434 276.133 738.434 279.102V302H731.426V279.945C731.426 277.336 730.746 275.297 729.387 273.828C728.027 272.344 726.16 271.602 723.785 271.602C722.16 271.602 720.715 271.953 719.449 272.656C718.199 273.359 717.207 274.391 716.473 275.75C715.754 277.094 715.395 278.719 715.395 280.625ZM755.496 288.195V287.75C755.527 284.844 755.816 282.531 756.363 280.812C756.926 279.094 757.723 277.703 758.754 276.641C759.785 275.578 761.027 274.609 762.48 273.734C763.418 273.141 764.262 272.477 765.012 271.742C765.762 271.008 766.355 270.164 766.793 269.211C767.23 268.258 767.449 267.203 767.449 266.047C767.449 264.656 767.121 263.453 766.465 262.438C765.809 261.422 764.934 260.641 763.84 260.094C762.762 259.531 761.559 259.25 760.23 259.25C759.027 259.25 757.879 259.5 756.785 260C755.691 260.5 754.785 261.281 754.066 262.344C753.348 263.391 752.934 264.742 752.824 266.398H745.699C745.809 263.586 746.52 261.211 747.832 259.273C749.145 257.32 750.879 255.844 753.035 254.844C755.207 253.844 757.605 253.344 760.23 253.344C763.105 253.344 765.621 253.883 767.777 254.961C769.934 256.023 771.605 257.516 772.793 259.437C773.996 261.344 774.598 263.57 774.598 266.117C774.598 267.867 774.324 269.445 773.777 270.852C773.23 272.242 772.449 273.484 771.434 274.578C770.434 275.672 769.23 276.641 767.824 277.484C766.496 278.312 765.418 279.172 764.59 280.062C763.777 280.953 763.184 282.008 762.809 283.227C762.434 284.445 762.23 285.953 762.199 287.75V288.195H755.496ZM759.035 302.445C757.754 302.445 756.652 301.992 755.73 301.086C754.809 300.164 754.348 299.055 754.348 297.758C754.348 296.477 754.809 295.383 755.73 294.477C756.652 293.555 757.754 293.094 759.035 293.094C760.301 293.094 761.395 293.555 762.316 294.477C763.254 295.383 763.723 296.477 763.723 297.758C763.723 298.617 763.504 299.406 763.066 300.125C762.645 300.828 762.082 301.391 761.379 301.812C760.676 302.234 759.895 302.445 759.035 302.445Z" fill="white"/>
<path d="M155.858 383H164.085L176.624 404.82H177.14L189.679 383H197.905L180.491 412.156V431H173.272V412.156L155.858 383ZM204.743 431V383H234.837V389.234H211.985V403.859H233.267V410.07H211.985V424.766H235.118V431H204.743ZM270.69 395.609C270.44 393.391 269.409 391.672 267.597 390.453C265.784 389.219 263.503 388.602 260.753 388.602C258.784 388.602 257.081 388.914 255.644 389.539C254.206 390.148 253.089 390.992 252.292 392.07C251.511 393.133 251.12 394.344 251.12 395.703C251.12 396.844 251.386 397.828 251.917 398.656C252.464 399.484 253.175 400.18 254.05 400.742C254.94 401.289 255.894 401.75 256.909 402.125C257.925 402.484 258.901 402.781 259.839 403.016L264.526 404.234C266.058 404.609 267.628 405.117 269.237 405.758C270.847 406.398 272.339 407.242 273.714 408.289C275.089 409.336 276.198 410.633 277.042 412.18C277.901 413.727 278.331 415.578 278.331 417.734C278.331 420.453 277.628 422.867 276.222 424.977C274.831 427.086 272.808 428.75 270.151 429.969C267.511 431.188 264.315 431.797 260.565 431.797C256.972 431.797 253.862 431.227 251.237 430.086C248.612 428.945 246.558 427.328 245.073 425.234C243.589 423.125 242.769 420.625 242.612 417.734H249.878C250.019 419.469 250.581 420.914 251.565 422.07C252.565 423.211 253.839 424.062 255.386 424.625C256.948 425.172 258.659 425.445 260.519 425.445C262.565 425.445 264.386 425.125 265.979 424.484C267.589 423.828 268.854 422.922 269.776 421.766C270.698 420.594 271.159 419.227 271.159 417.664C271.159 416.242 270.753 415.078 269.94 414.172C269.144 413.266 268.058 412.516 266.683 411.922C265.323 411.328 263.784 410.805 262.065 410.352L256.394 408.805C252.55 407.758 249.503 406.219 247.253 404.188C245.019 402.156 243.901 399.469 243.901 396.125C243.901 393.359 244.651 390.945 246.151 388.883C247.651 386.82 249.683 385.219 252.245 384.078C254.808 382.922 257.698 382.344 260.917 382.344C264.167 382.344 267.034 382.914 269.519 384.055C272.019 385.195 273.987 386.766 275.425 388.766C276.862 390.75 277.612 393.031 277.675 395.609H270.69Z" fill="#3FFF97"/>
<path d="M659 384V432H652.344L627.945 396.797H627.5V432H620.258V384H626.961L651.383 419.25H651.828V384H659ZM711.26 408C711.26 413.125 710.322 417.531 708.447 421.219C706.572 424.891 704.002 427.719 700.736 429.703C697.486 431.672 693.791 432.656 689.65 432.656C685.494 432.656 681.783 431.672 678.518 429.703C675.268 427.719 672.705 424.883 670.83 421.195C668.955 417.508 668.018 413.109 668.018 408C668.018 402.875 668.955 398.477 670.83 394.805C672.705 391.117 675.268 388.289 678.518 386.32C681.783 384.336 685.494 383.344 689.65 383.344C693.791 383.344 697.486 384.336 700.736 386.32C704.002 388.289 706.572 391.117 708.447 394.805C710.322 398.477 711.26 402.875 711.26 408ZM704.088 408C704.088 404.094 703.455 400.805 702.189 398.133C700.939 395.445 699.221 393.414 697.033 392.039C694.861 390.648 692.4 389.953 689.65 389.953C686.885 389.953 684.416 390.648 682.244 392.039C680.072 393.414 678.354 395.445 677.088 398.133C675.838 400.805 675.213 404.094 675.213 408C675.213 411.906 675.838 415.203 677.088 417.891C678.354 420.562 680.072 422.594 682.244 423.984C684.416 425.359 686.885 426.047 689.65 426.047C692.4 426.047 694.861 425.359 697.033 423.984C699.221 422.594 700.939 420.562 702.189 417.891C703.455 415.203 704.088 411.906 704.088 408Z" fill="#FF7272"/>
<path fill-rule="evenodd" clip-rule="evenodd" d="M552.29 133.805C556.574 125.482 559.026 115.814 559.026 105.5C559.026 74.2959 536.578 49 508.887 49C481.196 49 458.748 74.2959 458.748 105.5C458.748 115.814 461.201 125.483 465.485 133.806C465.139 130.447 464.96 127.005 464.96 123.5C464.96 86.7731 484.627 57 508.887 57C533.148 57 552.815 86.7731 552.815 123.5C552.815 127.005 552.635 130.447 552.29 133.805Z" fill="white"/>
<rect x="458.748" y="104" width="7.98675" height="47" fill="white"/>
<rect x="551.04" y="104" width="7.98675" height="47" fill="white"/>
<ellipse cx="460.5" cy="127.5" rx="14.5" ry="23.5" fill="white"/>
<ellipse cx="557" cy="127.5" rx="15" ry="23.5" fill="white"/>
<rect width="84.3046" height="47" transform="matrix(-1 0 0 1 551.04 104)" fill="#5D5D5D"/>
<rect x="539.503" y="106" width="7.98675" height="42" fill="white"/>
<rect x="470.285" y="106" width="7.98675" height="42" fill="white"/>
<rect x="307" y="393.978" width="27" height="28.5318" fill="white"/>
<path fill-rule="evenodd" clip-rule="evenodd" d="M346.26 390.498C341.07 393.105 337.063 398.456 335.861 405.2L337.489 402.898C338.639 399.418 340.732 396.536 343.367 394.587L346.26 390.498ZM336.635 406.854L335.73 406.02C335.725 406.055 335.72 406.091 335.715 406.127C335.602 406.946 335.534 407.76 335.507 408.568L336.538 408.114C336.557 407.696 336.589 407.275 336.635 406.854ZM356.261 392.711L358.484 389.569C367.086 392.385 372.702 402.142 371.28 412.492C369.96 422.096 363.011 429.095 354.87 429.798L353.56 425.921C359.953 424.923 365.289 419.257 366.34 411.608C367.493 403.219 363.098 395.299 356.261 392.711Z" fill="white"/>
<path fill-rule="evenodd" clip-rule="evenodd" d="M358.41 384.45C358.954 384.5 359.501 384.573 360.049 384.671C371.847 386.783 379.911 399.41 378.061 412.875C376.546 423.9 368.853 432.069 359.638 433.507L361.526 439.095C373.261 438.082 383.28 427.992 385.182 414.149C387.402 397.991 377.725 382.839 363.568 380.305C362.887 380.184 362.209 380.093 361.534 380.033L358.41 384.45Z" fill="white"/>
<path d="M326.954 394.548L350.954 378V439.058L326.954 421.939V394.548Z" fill="white"/>
<rect x="753" y="393.832" width="27" height="28.271" fill="white"/>
<path d="M772.954 394.397L796.954 378V438.5L772.954 421.537V394.397Z" fill="white"/>
<rect width="5.33714" height="47.8929" transform="matrix(0.66244 -0.749115 0.66244 0.749115 803 392.176)" fill="white"/>
<rect width="5.33714" height="47.8929" transform="matrix(0.66244 0.749115 -0.66244 0.749115 834.726 388.178)" fill="white"/>
<path d="M150.404 121.172C150.342 118.469 150.74 116.25 151.6 114.516C152.475 112.781 153.646 111.5 155.115 110.672C156.584 109.828 158.201 109.406 159.967 109.406C161.529 109.406 162.975 109.742 164.303 110.414C165.631 111.07 167.146 112.148 168.85 113.648C169.912 114.57 170.779 115.242 171.451 115.664C172.123 116.07 172.873 116.273 173.701 116.273C174.967 116.273 175.975 115.805 176.725 114.867C177.49 113.914 177.857 112.508 177.826 110.648H183.756C183.818 113.367 183.412 115.594 182.537 117.328C181.678 119.062 180.506 120.344 179.021 121.172C177.553 122 175.943 122.414 174.193 122.414C172.615 122.414 171.162 122.078 169.834 121.406C168.506 120.719 166.998 119.641 165.311 118.172C164.217 117.219 163.342 116.547 162.686 116.156C162.029 115.75 161.287 115.547 160.459 115.547C159.256 115.547 158.256 115.984 157.459 116.859C156.678 117.719 156.303 119.156 156.334 121.172H150.404ZM196.025 111.961V105.797H226.049V111.961H196.025ZM196.025 126.398V120.234H226.049V126.398H196.025ZM238.318 121.172C238.256 118.469 238.654 116.25 239.514 114.516C240.389 112.781 241.561 111.5 243.029 110.672C244.498 109.828 246.115 109.406 247.881 109.406C249.443 109.406 250.889 109.742 252.217 110.414C253.545 111.07 255.061 112.148 256.764 113.648C257.826 114.57 258.693 115.242 259.365 115.664C260.037 116.07 260.787 116.273 261.615 116.273C262.881 116.273 263.889 115.805 264.639 114.867C265.404 113.914 265.771 112.508 265.74 110.648H271.67C271.732 113.367 271.326 115.594 270.451 117.328C269.592 119.062 268.42 120.344 266.936 121.172C265.467 122 263.857 122.414 262.107 122.414C260.529 122.414 259.076 122.078 257.748 121.406C256.42 120.719 254.912 119.641 253.225 118.172C252.131 117.219 251.256 116.547 250.6 116.156C249.943 115.75 249.201 115.547 248.373 115.547C247.17 115.547 246.17 115.984 245.373 116.859C244.592 117.719 244.217 119.156 244.248 121.172H238.318ZM283.939 111.961V105.797H313.963V111.961H283.939ZM283.939 126.398V120.234H313.963V126.398H283.939ZM326.232 121.172C326.17 118.469 326.568 116.25 327.428 114.516C328.303 112.781 329.475 111.5 330.943 110.672C332.412 109.828 334.029 109.406 335.795 109.406C337.357 109.406 338.803 109.742 340.131 110.414C341.459 111.07 342.975 112.148 344.678 113.648C345.74 114.57 346.607 115.242 347.279 115.664C347.951 116.07 348.701 116.273 349.529 116.273C350.795 116.273 351.803 115.805 352.553 114.867C353.318 113.914 353.686 112.508 353.654 110.648H359.584C359.646 113.367 359.24 115.594 358.365 117.328C357.506 119.062 356.334 120.344 354.85 121.172C353.381 122 351.771 122.414 350.021 122.414C348.443 122.414 346.99 122.078 345.662 121.406C344.334 120.719 342.826 119.641 341.139 118.172C340.045 117.219 339.17 116.547 338.514 116.156C337.857 115.75 337.115 115.547 336.287 115.547C335.084 115.547 334.084 115.984 333.287 116.859C332.506 117.719 332.131 119.156 332.162 121.172H326.232Z" fill="white"/>
<path d="M659.404 121.172C659.342 118.469 659.74 116.25 660.6 114.516C661.475 112.781 662.646 111.5 664.115 110.672C665.584 109.828 667.201 109.406 668.967 109.406C670.529 109.406 671.975 109.742 673.303 110.414C674.631 111.07 676.146 112.148 677.85 113.648C678.912 114.57 679.779 115.242 680.451 115.664C681.123 116.07 681.873 116.273 682.701 116.273C683.967 116.273 684.975 115.805 685.725 114.867C686.49 113.914 686.857 112.508 686.826 110.648H692.756C692.818 113.367 692.412 115.594 691.537 117.328C690.678 119.062 689.506 120.344 688.021 121.172C686.553 122 684.943 122.414 683.193 122.414C681.615 122.414 680.162 122.078 678.834 121.406C677.506 120.719 675.998 119.641 674.311 118.172C673.217 117.219 672.342 116.547 671.686 116.156C671.029 115.75 670.287 115.547 669.459 115.547C668.256 115.547 667.256 115.984 666.459 116.859C665.678 117.719 665.303 119.156 665.334 121.172H659.404ZM705.025 111.961V105.797H735.049V111.961H705.025ZM705.025 126.398V120.234H735.049V126.398H705.025ZM747.318 121.172C747.256 118.469 747.654 116.25 748.514 114.516C749.389 112.781 750.561 111.5 752.029 110.672C753.498 109.828 755.115 109.406 756.881 109.406C758.443 109.406 759.889 109.742 761.217 110.414C762.545 111.07 764.061 112.148 765.764 113.648C766.826 114.57 767.693 115.242 768.365 115.664C769.037 116.07 769.787 116.273 770.615 116.273C771.881 116.273 772.889 115.805 773.639 114.867C774.404 113.914 774.771 112.508 774.74 110.648H780.67C780.732 113.367 780.326 115.594 779.451 117.328C778.592 119.062 777.42 120.344 775.936 121.172C774.467 122 772.857 122.414 771.107 122.414C769.529 122.414 768.076 122.078 766.748 121.406C765.42 120.719 763.912 119.641 762.225 118.172C761.131 117.219 760.256 116.547 759.6 116.156C758.943 115.75 758.201 115.547 757.373 115.547C756.17 115.547 755.17 115.984 754.373 116.859C753.592 117.719 753.217 119.156 753.248 121.172H747.318ZM792.939 111.961V105.797H822.963V111.961H792.939ZM792.939 126.398V120.234H822.963V126.398H792.939ZM835.232 121.172C835.17 118.469 835.568 116.25 836.428 114.516C837.303 112.781 838.475 111.5 839.943 110.672C841.412 109.828 843.029 109.406 844.795 109.406C846.357 109.406 847.803 109.742 849.131 110.414C850.459 111.07 851.975 112.148 853.678 113.648C854.74 114.57 855.607 115.242 856.279 115.664C856.951 116.07 857.701 116.273 858.529 116.273C859.795 116.273 860.803 115.805 861.553 114.867C862.318 113.914 862.686 112.508 862.654 110.648H868.584C868.646 113.367 868.24 115.594 867.365 117.328C866.506 119.062 865.334 120.344 863.85 121.172C862.381 122 860.771 122.414 859.021 122.414C857.443 122.414 855.99 122.078 854.662 121.406C853.334 120.719 851.826 119.641 850.139 118.172C849.045 117.219 848.17 116.547 847.514 116.156C846.857 115.75 846.115 115.547 845.287 115.547C844.084 115.547 843.084 115.984 842.287 116.859C841.506 117.719 841.131 119.156 841.162 121.172H835.232Z" fill="white"/>
</svg>
