<svg width="1098" height="635" viewBox="0 0 1098 635" fill="none" xmlns="http://www.w3.org/2000/svg">
<path fill-rule="evenodd" clip-rule="evenodd" d="M64 0C28.6538 0 0 28.6538 0 64V571C0 606.346 28.6538 635 64 635H1034C1069.35 635 1098 606.346 1098 571V64C1098 28.6538 1069.35 0 1034 0H64ZM546 30.0948H96C60.6538 30.0948 32 58.7486 32 94.0948V543.915C32 579.261 60.6538 607.915 96 607.915H546V30.0948ZM548 30.0948H998C1033.35 30.0948 1062 58.7486 1062 94.0948V543.915C1062 579.261 1033.35 607.915 998 607.915H548V30.0948Z" fill="#373737"/>
<rect x="533" y="17.0537" width="32" height="599.889" fill="#373737"/>
<path d="M338.652 80.2714L350.094 129.832L352.359 141.896H353.492L355.588 129.832L367.539 74.1542H384.021L363.348 157.133H339.332L329.08 113.746L326.588 99.9823H325.455L323.02 113.746L312.768 157.133H288.355L267.568 74.1542H288.412L300.477 129.832L302.516 141.896H303.648L305.914 129.832L317.299 80.2714H338.652ZM444.174 150.846C442.135 152.28 440.039 153.489 437.887 154.471C435.772 155.415 433.658 156.17 431.543 156.736C429.428 157.303 427.352 157.699 425.312 157.926C423.273 158.152 421.31 158.266 419.422 158.266C414.589 158.266 410.227 157.624 406.338 156.34C402.449 155.018 399.145 153.13 396.426 150.676C393.707 148.221 391.611 145.2 390.139 141.613C388.704 138.026 387.986 133.929 387.986 129.322C387.986 124.111 388.893 119.448 390.705 115.332C392.518 111.178 394.934 107.685 397.955 104.853C401.014 101.984 404.544 99.7935 408.547 98.2831C412.549 96.7349 416.741 95.9608 421.121 95.9608C424.897 95.9608 428.371 96.5461 431.543 97.7167C434.753 98.8873 437.509 100.624 439.812 102.928C442.154 105.193 443.966 108.025 445.25 111.424C446.534 114.784 447.176 118.674 447.176 123.092C447.176 124.527 447.1 125.848 446.949 127.057C446.836 128.265 446.685 129.266 446.496 130.058H408.207C408.207 132.702 408.66 134.967 409.566 136.855C410.51 138.743 411.832 140.31 413.531 141.557C415.268 142.765 417.345 143.652 419.762 144.219C422.178 144.785 424.878 145.068 427.861 145.068C428.919 145.068 430.089 145.03 431.373 144.955C432.695 144.879 434.054 144.747 435.451 144.558C436.886 144.332 438.34 144.068 439.812 143.766C441.285 143.426 442.739 142.991 444.174 142.463V150.846ZM429.334 123.148C429.334 120.543 429.07 118.296 428.541 116.408C428.05 114.52 427.352 112.972 426.445 111.764C425.539 110.517 424.463 109.611 423.217 109.045C421.971 108.441 420.611 108.139 419.139 108.139C417.515 108.139 416.023 108.478 414.664 109.158C413.342 109.838 412.191 110.82 411.209 112.103C410.265 113.387 409.529 114.954 409 116.805C408.471 118.655 408.207 120.769 408.207 123.148H429.334ZM460.713 66.3944H480.367V105.476C481.878 104.268 483.426 103.098 485.012 101.965C486.635 100.794 488.297 99.7746 489.996 98.9061C491.733 97.9999 493.527 97.2824 495.377 96.7538C497.227 96.2252 499.172 95.9608 501.211 95.9608C504.723 95.9608 507.876 96.7727 510.67 98.3964C513.464 99.9823 515.824 102.116 517.75 104.797C519.714 107.44 521.224 110.499 522.281 113.973C523.339 117.409 523.867 120.996 523.867 124.734C523.867 129.417 523.036 133.797 521.375 137.875C519.714 141.953 517.259 145.502 514.012 148.523C510.764 151.544 506.762 153.923 502.004 155.66C497.246 157.397 491.79 158.266 485.635 158.266C484.087 158.266 482.331 158.19 480.367 158.039C478.441 157.926 476.383 157.718 474.193 157.416C472.041 157.152 469.813 156.793 467.51 156.34C465.244 155.849 462.979 155.245 460.713 154.527V66.3944ZM480.367 144.162C481.953 144.842 483.464 145.333 484.898 145.635C486.333 145.937 487.655 146.088 488.863 146.088C491.318 146.088 493.47 145.54 495.32 144.445C497.171 143.35 498.7 141.915 499.908 140.141C501.154 138.328 502.079 136.27 502.684 133.967C503.326 131.626 503.646 129.228 503.646 126.773C503.646 124.357 503.344 122.091 502.74 119.976C502.174 117.824 501.324 115.955 500.191 114.369C499.059 112.783 497.661 111.537 496 110.631C494.376 109.687 492.488 109.215 490.336 109.215C488.977 109.215 487.447 109.498 485.748 110.064C484.087 110.593 482.293 111.65 480.367 113.236V144.162Z" fill="black"/>
<path d="M623.271 109.951C621.497 109.196 619.911 108.705 618.514 108.478C617.154 108.252 616.04 108.139 615.172 108.139C612.604 108.139 610.357 108.667 608.432 109.725C606.544 110.782 604.958 112.217 603.674 114.029C602.428 115.804 601.484 117.881 600.842 120.26C600.238 122.639 599.936 125.15 599.936 127.793C599.936 130.361 600.219 132.702 600.785 134.816C601.352 136.931 602.145 138.762 603.164 140.31C604.221 141.821 605.467 142.991 606.902 143.822C608.337 144.653 609.942 145.068 611.717 145.068C613.68 145.068 615.682 144.577 617.721 143.596C619.76 142.576 621.61 141.198 623.271 139.461V109.951ZM623.271 66.3944H642.982V157.133H626.16L623.951 147.844C622.554 149.09 621.081 150.336 619.533 151.582C618.023 152.828 616.399 153.942 614.662 154.924C612.963 155.905 611.15 156.698 609.225 157.303C607.299 157.945 605.241 158.266 603.051 158.266C599.426 158.266 596.178 157.473 593.309 155.887C590.439 154.263 587.984 152.129 585.945 149.486C583.944 146.805 582.415 143.766 581.357 140.367C580.3 136.969 579.771 133.457 579.771 129.832C579.771 126.66 580.168 123.62 580.961 120.713C581.754 117.805 582.887 115.105 584.359 112.613C585.832 110.083 587.588 107.799 589.627 105.76C591.704 103.721 593.988 101.984 596.48 100.549C599.01 99.0761 601.71 97.9433 604.58 97.1503C607.488 96.3573 610.508 95.9608 613.643 95.9608C615.568 95.9608 617.4 96.093 619.137 96.3573C620.874 96.6216 622.252 96.9048 623.271 97.2069V66.3944ZM712.537 150.846C710.498 152.28 708.402 153.489 706.25 154.471C704.135 155.415 702.021 156.17 699.906 156.736C697.792 157.303 695.715 157.699 693.676 157.926C691.637 158.152 689.673 158.266 687.785 158.266C682.952 158.266 678.59 157.624 674.701 156.34C670.812 155.018 667.508 153.13 664.789 150.676C662.07 148.221 659.975 145.2 658.502 141.613C657.067 138.026 656.35 133.929 656.35 129.322C656.35 124.111 657.256 119.448 659.068 115.332C660.881 111.178 663.298 107.685 666.318 104.853C669.377 101.984 672.908 99.7935 676.91 98.2831C680.913 96.7349 685.104 95.9608 689.484 95.9608C693.26 95.9608 696.734 96.5461 699.906 97.7167C703.116 98.8873 705.872 100.624 708.176 102.928C710.517 105.193 712.329 108.025 713.613 111.424C714.897 114.784 715.539 118.674 715.539 123.092C715.539 124.527 715.464 125.848 715.312 127.057C715.199 128.265 715.048 129.266 714.859 130.058H676.57C676.57 132.702 677.023 134.967 677.93 136.855C678.874 138.743 680.195 140.31 681.895 141.557C683.632 142.765 685.708 143.652 688.125 144.219C690.542 144.785 693.242 145.068 696.225 145.068C697.282 145.068 698.452 145.03 699.736 144.955C701.058 144.879 702.417 144.747 703.814 144.558C705.249 144.332 706.703 144.068 708.176 143.766C709.648 143.426 711.102 142.991 712.537 142.463V150.846ZM697.697 123.148C697.697 120.543 697.433 118.296 696.904 116.408C696.413 114.52 695.715 112.972 694.809 111.764C693.902 110.517 692.826 109.611 691.58 109.045C690.334 108.441 688.975 108.139 687.502 108.139C685.878 108.139 684.387 108.478 683.027 109.158C681.706 109.838 680.554 110.82 679.572 112.103C678.628 113.387 677.892 114.954 677.363 116.805C676.835 118.655 676.57 120.769 676.57 123.148H697.697ZM722.732 97.0936H743.916L752.809 131.531L755.131 143.086H756.264L758.416 131.531L767.422 97.0936H784.188L764.703 157.133H742.217L722.732 97.0936Z" fill="black"/>
<path d="M623.271 109.951C621.497 109.196 619.911 108.705 618.514 108.478C617.154 108.252 616.04 108.139 615.172 108.139C612.604 108.139 610.357 108.667 608.432 109.725C606.544 110.782 604.958 112.217 603.674 114.029C602.428 115.804 601.484 117.881 600.842 120.26C600.238 122.639 599.936 125.15 599.936 127.793C599.936 130.361 600.219 132.702 600.785 134.816C601.352 136.931 602.145 138.762 603.164 140.31C604.221 141.821 605.467 142.991 606.902 143.822C608.337 144.653 609.942 145.068 611.717 145.068C613.68 145.068 615.682 144.577 617.721 143.596C619.76 142.576 621.61 141.198 623.271 139.461V109.951ZM623.271 66.3944H642.982V157.133H626.16L623.951 147.844C622.554 149.09 621.081 150.336 619.533 151.582C618.023 152.828 616.399 153.942 614.662 154.924C612.963 155.905 611.15 156.698 609.225 157.303C607.299 157.945 605.241 158.266 603.051 158.266C599.426 158.266 596.178 157.473 593.309 155.887C590.439 154.263 587.984 152.129 585.945 149.486C583.944 146.805 582.415 143.766 581.357 140.367C580.3 136.969 579.771 133.457 579.771 129.832C579.771 126.66 580.168 123.62 580.961 120.713C581.754 117.805 582.887 115.105 584.359 112.613C585.832 110.083 587.588 107.799 589.627 105.76C591.704 103.721 593.988 101.984 596.48 100.549C599.01 99.0761 601.71 97.9433 604.58 97.1503C607.488 96.3573 610.508 95.9608 613.643 95.9608C615.568 95.9608 617.4 96.093 619.137 96.3573C620.874 96.6216 622.252 96.9048 623.271 97.2069V66.3944ZM712.537 150.846C710.498 152.28 708.402 153.489 706.25 154.471C704.135 155.415 702.021 156.17 699.906 156.736C697.792 157.303 695.715 157.699 693.676 157.926C691.637 158.152 689.673 158.266 687.785 158.266C682.952 158.266 678.59 157.624 674.701 156.34C670.812 155.018 667.508 153.13 664.789 150.676C662.07 148.221 659.975 145.2 658.502 141.613C657.067 138.026 656.35 133.929 656.35 129.322C656.35 124.111 657.256 119.448 659.068 115.332C660.881 111.178 663.298 107.685 666.318 104.853C669.377 101.984 672.908 99.7935 676.91 98.2831C680.913 96.7349 685.104 95.9608 689.484 95.9608C693.26 95.9608 696.734 96.5461 699.906 97.7167C703.116 98.8873 705.872 100.624 708.176 102.928C710.517 105.193 712.329 108.025 713.613 111.424C714.897 114.784 715.539 118.674 715.539 123.092C715.539 124.527 715.464 125.848 715.312 127.057C715.199 128.265 715.048 129.266 714.859 130.058H676.57C676.57 132.702 677.023 134.967 677.93 136.855C678.874 138.743 680.195 140.31 681.895 141.557C683.632 142.765 685.708 143.652 688.125 144.219C690.542 144.785 693.242 145.068 696.225 145.068C697.282 145.068 698.452 145.03 699.736 144.955C701.058 144.879 702.417 144.747 703.814 144.558C705.249 144.332 706.703 144.068 708.176 143.766C709.648 143.426 711.102 142.991 712.537 142.463V150.846ZM697.697 123.148C697.697 120.543 697.433 118.296 696.904 116.408C696.413 114.52 695.715 112.972 694.809 111.764C693.902 110.517 692.826 109.611 691.58 109.045C690.334 108.441 688.975 108.139 687.502 108.139C685.878 108.139 684.387 108.478 683.027 109.158C681.706 109.838 680.554 110.82 679.572 112.103C678.628 113.387 677.892 114.954 677.363 116.805C676.835 118.655 676.57 120.769 676.57 123.148H697.697ZM722.732 97.0936H743.916L752.809 131.531L755.131 143.086H756.264L758.416 131.531L767.422 97.0936H784.188L764.703 157.133H742.217L722.732 97.0936Z" fill="white"/>
</svg>
