<svg width="1098" height="633" viewBox="0 0 1098 633" fill="none" xmlns="http://www.w3.org/2000/svg">
<path fill-rule="evenodd" clip-rule="evenodd" d="M64 0C28.6538 0 0 28.6538 0 64V569C0 604.346 28.6538 633 64 633H1034C1069.35 633 1098 604.346 1098 569V64C1098 28.6538 1069.35 0 1034 0H64ZM546 30H96C60.6538 30 32 58.6538 32 94V542C32 577.346 60.6538 606 96 606H546V30ZM548 30H998C1033.35 30 1062 58.6538 1062 94V542C1062 577.346 1033.35 606 998 606H548V30Z" fill="#373737"/>
<rect x="533" y="17" width="32" height="598" fill="#373737"/>
<path d="M338.652 80.1387L350.094 129.699L352.359 141.764H353.492L355.588 129.699L367.539 74.0215H384.021L363.348 157H339.332L329.08 113.613L326.588 99.8496H325.455L323.02 113.613L312.768 157H288.355L267.568 74.0215H288.412L300.477 129.699L302.516 141.764H303.648L305.914 129.699L317.299 80.1387H338.652ZM444.174 150.713C442.135 152.148 440.039 153.356 437.887 154.338C435.772 155.282 433.658 156.037 431.543 156.604C429.428 157.17 427.352 157.566 425.312 157.793C423.273 158.02 421.31 158.133 419.422 158.133C414.589 158.133 410.227 157.491 406.338 156.207C402.449 154.885 399.145 152.997 396.426 150.543C393.707 148.089 391.611 145.068 390.139 141.48C388.704 137.893 387.986 133.796 387.986 129.189C387.986 123.979 388.893 119.315 390.705 115.199C392.518 111.046 394.934 107.553 397.955 104.721C401.014 101.851 404.544 99.6608 408.547 98.1504C412.549 96.6022 416.741 95.8281 421.121 95.8281C424.897 95.8281 428.371 96.4134 431.543 97.584C434.753 98.7546 437.509 100.492 439.812 102.795C442.154 105.061 443.966 107.893 445.25 111.291C446.534 114.652 447.176 118.541 447.176 122.959C447.176 124.394 447.1 125.715 446.949 126.924C446.836 128.132 446.685 129.133 446.496 129.926H408.207C408.207 132.569 408.66 134.835 409.566 136.723C410.51 138.611 411.832 140.178 413.531 141.424C415.268 142.632 417.345 143.52 419.762 144.086C422.178 144.652 424.878 144.936 427.861 144.936C428.919 144.936 430.089 144.898 431.373 144.822C432.695 144.747 434.054 144.615 435.451 144.426C436.886 144.199 438.34 143.935 439.812 143.633C441.285 143.293 442.739 142.859 444.174 142.33V150.713ZM429.334 123.016C429.334 120.41 429.07 118.163 428.541 116.275C428.05 114.387 427.352 112.839 426.445 111.631C425.539 110.385 424.463 109.479 423.217 108.912C421.971 108.308 420.611 108.006 419.139 108.006C417.515 108.006 416.023 108.346 414.664 109.025C413.342 109.705 412.191 110.687 411.209 111.971C410.265 113.255 409.529 114.822 409 116.672C408.471 118.522 408.207 120.637 408.207 123.016H429.334ZM460.713 66.2617H480.367V105.344C481.878 104.135 483.426 102.965 485.012 101.832C486.635 100.661 488.297 99.6419 489.996 98.7734C491.733 97.8672 493.527 97.1497 495.377 96.6211C497.227 96.0924 499.172 95.8281 501.211 95.8281C504.723 95.8281 507.876 96.64 510.67 98.2637C513.464 99.8496 515.824 101.983 517.75 104.664C519.714 107.307 521.224 110.366 522.281 113.84C523.339 117.276 523.867 120.863 523.867 124.602C523.867 129.284 523.036 133.664 521.375 137.742C519.714 141.82 517.259 145.37 514.012 148.391C510.764 151.411 506.762 153.79 502.004 155.527C497.246 157.264 491.79 158.133 485.635 158.133C484.087 158.133 482.331 158.057 480.367 157.906C478.441 157.793 476.383 157.585 474.193 157.283C472.041 157.019 469.813 156.66 467.51 156.207C465.244 155.716 462.979 155.112 460.713 154.395V66.2617ZM480.367 144.029C481.953 144.709 483.464 145.2 484.898 145.502C486.333 145.804 487.655 145.955 488.863 145.955C491.318 145.955 493.47 145.408 495.32 144.312C497.171 143.217 498.7 141.783 499.908 140.008C501.154 138.195 502.079 136.137 502.684 133.834C503.326 131.493 503.646 129.095 503.646 126.641C503.646 124.224 503.344 121.958 502.74 119.844C502.174 117.691 501.324 115.822 500.191 114.236C499.059 112.65 497.661 111.404 496 110.498C494.376 109.554 492.488 109.082 490.336 109.082C488.977 109.082 487.447 109.365 485.748 109.932C484.087 110.46 482.293 111.518 480.367 113.104V144.029Z" fill="black"/>
<path d="M623.271 109.818C621.497 109.063 619.911 108.572 618.514 108.346C617.154 108.119 616.04 108.006 615.172 108.006C612.604 108.006 610.357 108.535 608.432 109.592C606.544 110.649 604.958 112.084 603.674 113.896C602.428 115.671 601.484 117.748 600.842 120.127C600.238 122.506 599.936 125.017 599.936 127.66C599.936 130.228 600.219 132.569 600.785 134.684C601.352 136.798 602.145 138.63 603.164 140.178C604.221 141.688 605.467 142.859 606.902 143.689C608.337 144.52 609.942 144.936 611.717 144.936C613.68 144.936 615.682 144.445 617.721 143.463C619.76 142.443 621.61 141.065 623.271 139.328V109.818ZM623.271 66.2617H642.982V157H626.16L623.951 147.711C622.554 148.957 621.081 150.203 619.533 151.449C618.023 152.695 616.399 153.809 614.662 154.791C612.963 155.773 611.15 156.566 609.225 157.17C607.299 157.812 605.241 158.133 603.051 158.133C599.426 158.133 596.178 157.34 593.309 155.754C590.439 154.13 587.984 151.997 585.945 149.354C583.944 146.673 582.415 143.633 581.357 140.234C580.3 136.836 579.771 133.324 579.771 129.699C579.771 126.527 580.168 123.488 580.961 120.58C581.754 117.673 582.887 114.973 584.359 112.48C585.832 109.951 587.588 107.666 589.627 105.627C591.704 103.588 593.988 101.851 596.48 100.416C599.01 98.9434 601.71 97.8105 604.58 97.0176C607.488 96.2246 610.508 95.8281 613.643 95.8281C615.568 95.8281 617.4 95.9603 619.137 96.2246C620.874 96.4889 622.252 96.7721 623.271 97.0742V66.2617ZM712.537 150.713C710.498 152.148 708.402 153.356 706.25 154.338C704.135 155.282 702.021 156.037 699.906 156.604C697.792 157.17 695.715 157.566 693.676 157.793C691.637 158.02 689.673 158.133 687.785 158.133C682.952 158.133 678.59 157.491 674.701 156.207C670.812 154.885 667.508 152.997 664.789 150.543C662.07 148.089 659.975 145.068 658.502 141.48C657.067 137.893 656.35 133.796 656.35 129.189C656.35 123.979 657.256 119.315 659.068 115.199C660.881 111.046 663.298 107.553 666.318 104.721C669.377 101.851 672.908 99.6608 676.91 98.1504C680.913 96.6022 685.104 95.8281 689.484 95.8281C693.26 95.8281 696.734 96.4134 699.906 97.584C703.116 98.7546 705.872 100.492 708.176 102.795C710.517 105.061 712.329 107.893 713.613 111.291C714.897 114.652 715.539 118.541 715.539 122.959C715.539 124.394 715.464 125.715 715.312 126.924C715.199 128.132 715.048 129.133 714.859 129.926H676.57C676.57 132.569 677.023 134.835 677.93 136.723C678.874 138.611 680.195 140.178 681.895 141.424C683.632 142.632 685.708 143.52 688.125 144.086C690.542 144.652 693.242 144.936 696.225 144.936C697.282 144.936 698.452 144.898 699.736 144.822C701.058 144.747 702.417 144.615 703.814 144.426C705.249 144.199 706.703 143.935 708.176 143.633C709.648 143.293 711.102 142.859 712.537 142.33V150.713ZM697.697 123.016C697.697 120.41 697.433 118.163 696.904 116.275C696.413 114.387 695.715 112.839 694.809 111.631C693.902 110.385 692.826 109.479 691.58 108.912C690.334 108.308 688.975 108.006 687.502 108.006C685.878 108.006 684.387 108.346 683.027 109.025C681.706 109.705 680.554 110.687 679.572 111.971C678.628 113.255 677.892 114.822 677.363 116.672C676.835 118.522 676.57 120.637 676.57 123.016H697.697ZM722.732 96.9609H743.916L752.809 131.398L755.131 142.953H756.264L758.416 131.398L767.422 96.9609H784.188L764.703 157H742.217L722.732 96.9609Z" fill="black"/>
<path d="M623.271 109.818C621.497 109.063 619.911 108.572 618.514 108.346C617.154 108.119 616.04 108.006 615.172 108.006C612.604 108.006 610.357 108.535 608.432 109.592C606.544 110.649 604.958 112.084 603.674 113.896C602.428 115.671 601.484 117.748 600.842 120.127C600.238 122.506 599.936 125.017 599.936 127.66C599.936 130.228 600.219 132.569 600.785 134.684C601.352 136.798 602.145 138.63 603.164 140.178C604.221 141.688 605.467 142.859 606.902 143.689C608.337 144.52 609.942 144.936 611.717 144.936C613.68 144.936 615.682 144.445 617.721 143.463C619.76 142.443 621.61 141.065 623.271 139.328V109.818ZM623.271 66.2617H642.982V157H626.16L623.951 147.711C622.554 148.957 621.081 150.203 619.533 151.449C618.023 152.695 616.399 153.809 614.662 154.791C612.963 155.773 611.15 156.566 609.225 157.17C607.299 157.812 605.241 158.133 603.051 158.133C599.426 158.133 596.178 157.34 593.309 155.754C590.439 154.13 587.984 151.997 585.945 149.354C583.944 146.673 582.415 143.633 581.357 140.234C580.3 136.836 579.771 133.324 579.771 129.699C579.771 126.527 580.168 123.488 580.961 120.58C581.754 117.673 582.887 114.973 584.359 112.48C585.832 109.951 587.588 107.666 589.627 105.627C591.704 103.588 593.988 101.851 596.48 100.416C599.01 98.9434 601.71 97.8105 604.58 97.0176C607.488 96.2246 610.508 95.8281 613.643 95.8281C615.568 95.8281 617.4 95.9603 619.137 96.2246C620.874 96.4889 622.252 96.7721 623.271 97.0742V66.2617ZM712.537 150.713C710.498 152.148 708.402 153.356 706.25 154.338C704.135 155.282 702.021 156.037 699.906 156.604C697.792 157.17 695.715 157.566 693.676 157.793C691.637 158.02 689.673 158.133 687.785 158.133C682.952 158.133 678.59 157.491 674.701 156.207C670.812 154.885 667.508 152.997 664.789 150.543C662.07 148.089 659.975 145.068 658.502 141.48C657.067 137.893 656.35 133.796 656.35 129.189C656.35 123.979 657.256 119.315 659.068 115.199C660.881 111.046 663.298 107.553 666.318 104.721C669.377 101.851 672.908 99.6608 676.91 98.1504C680.913 96.6022 685.104 95.8281 689.484 95.8281C693.26 95.8281 696.734 96.4134 699.906 97.584C703.116 98.7546 705.872 100.492 708.176 102.795C710.517 105.061 712.329 107.893 713.613 111.291C714.897 114.652 715.539 118.541 715.539 122.959C715.539 124.394 715.464 125.715 715.312 126.924C715.199 128.132 715.048 129.133 714.859 129.926H676.57C676.57 132.569 677.023 134.835 677.93 136.723C678.874 138.611 680.195 140.178 681.895 141.424C683.632 142.632 685.708 143.52 688.125 144.086C690.542 144.652 693.242 144.936 696.225 144.936C697.282 144.936 698.452 144.898 699.736 144.822C701.058 144.747 702.417 144.615 703.814 144.426C705.249 144.199 706.703 143.935 708.176 143.633C709.648 143.293 711.102 142.859 712.537 142.33V150.713ZM697.697 123.016C697.697 120.41 697.433 118.163 696.904 116.275C696.413 114.387 695.715 112.839 694.809 111.631C693.902 110.385 692.826 109.479 691.58 108.912C690.334 108.308 688.975 108.006 687.502 108.006C685.878 108.006 684.387 108.346 683.027 109.025C681.706 109.705 680.554 110.687 679.572 111.971C678.628 113.255 677.892 114.822 677.363 116.672C676.835 118.522 676.57 120.637 676.57 123.016H697.697ZM722.732 96.9609H743.916L752.809 131.398L755.131 142.953H756.264L758.416 131.398L767.422 96.9609H784.188L764.703 157H742.217L722.732 96.9609Z" fill="white"/>
</svg>
