<svg width="1098" height="631" viewBox="0 0 1098 631" fill="none" xmlns="http://www.w3.org/2000/svg">
<path fill-rule="evenodd" clip-rule="evenodd" d="M64 0C28.6538 0 0 28.6538 0 64V567C0 602.346 28.6538 631 64 631H1034C1069.35 631 1098 602.346 1098 567V64C1098 28.6538 1069.35 0 1034 0H64ZM102 29.5833C66.6538 29.5833 38 58.237 38 93.5833V541.583C38 576.93 66.6538 605.583 102 605.583H998C1033.35 605.583 1062 576.93 1062 541.583V93.5833C1062 58.237 1033.35 29.5833 998 29.5833H102Z" fill="#373737"/>
</svg>
