<svg width="1098" height="635" viewBox="0 0 1098 635" fill="none" xmlns="http://www.w3.org/2000/svg">
<path d="M775 18.5H785.5V29V145C785.5 164.054 770.054 179.5 751 179.5H338C318.946 179.5 303.5 164.054 303.5 145V29V18.5H314H775Z" fill="#5E5E5E" stroke="#373737" stroke-width="21"/>
<path fill-rule="evenodd" clip-rule="evenodd" d="M64 0C28.6538 0 0 28.6538 0 64V571C0 606.346 28.6538 635 64 635H1034C1069.35 635 1098 606.346 1098 571V64C1098 28.6538 1069.35 0 1034 0H64ZM102 29.7708C66.6538 29.7708 38 58.4244 38 93.7707V545.422C38 580.768 66.6538 609.422 102 609.422H998C1033.35 609.422 1062 580.768 1062 545.422V93.7708C1062 58.4246 1033.35 29.7708 998 29.7708H102Z" fill="#373737"/>
</svg>
