<svg width="512" height="512" viewBox="0 0 512 512" fill="none" xmlns="http://www.w3.org/2000/svg">
<path d="M153.527 93.6797H116.496L108.469 117H97.6289L129.562 31.1602H141.75L173.742 117H161.672L153.527 93.6797ZM150.305 84.7148L138.938 51.1992L135.598 39.2461H134.426L131.086 51.1992L119.602 84.7148H150.305ZM202.688 117H191.203V31.1602H202.688V117ZM285.773 107.742C284.797 108.562 283.605 109.578 282.199 110.789C280.832 111.961 279.27 113.094 277.512 114.188C275.793 115.281 273.898 116.219 271.828 117C269.797 117.781 267.629 118.172 265.324 118.172C263.254 118.172 261.223 117.801 259.23 117.059C257.277 116.355 255.539 115.301 254.016 113.895C252.492 112.449 251.262 110.672 250.324 108.562C249.426 106.453 248.977 104.031 248.977 101.297C248.977 99.6172 249.172 97.918 249.562 96.1992C249.992 94.4805 250.695 92.8398 251.672 91.2773C252.648 89.6758 253.918 88.1914 255.48 86.8242C257.082 85.418 259.035 84.207 261.34 83.1914C263.684 82.1367 266.438 81.3164 269.602 80.7305C272.766 80.1445 276.398 79.8516 280.5 79.8516H285.773V74.4609C285.773 72.6641 285.461 71.043 284.836 69.5977C284.211 68.1523 283.332 66.9219 282.199 65.9062C281.105 64.8516 279.777 64.0508 278.215 63.5039C276.691 62.918 274.992 62.625 273.117 62.625C271.711 62.625 270.207 62.7812 268.605 63.0938C267.043 63.4062 265.461 63.8555 263.859 64.4414C262.297 65.0273 260.793 65.7109 259.348 66.4922C257.902 67.2734 256.633 68.1328 255.539 69.0703L254.484 68.4844L252.141 59.9297C254.406 58.6797 256.594 57.6641 258.703 56.8828C260.812 56.0625 262.824 55.418 264.738 54.9492C266.691 54.4805 268.547 54.168 270.305 54.0117C272.062 53.8164 273.742 53.7188 275.344 53.7188C282.648 53.7188 288.059 55.2422 291.574 58.2891C295.129 61.2969 296.906 65.8281 296.906 71.8828V102.469C296.906 102.977 296.945 103.602 297.023 104.344C297.102 105.047 297.277 105.73 297.551 106.395C297.863 107.059 298.293 107.625 298.84 108.094C299.426 108.562 300.207 108.797 301.184 108.797C301.73 108.797 302.453 108.719 303.352 108.562C304.25 108.367 305.148 108.055 306.047 107.625V113.836C304.172 115.125 302.277 116.18 300.363 117C298.488 117.781 296.672 118.172 294.914 118.172C293.312 118.172 291.984 117.84 290.93 117.176C289.914 116.551 289.055 115.73 288.352 114.715C287.688 113.699 287.16 112.586 286.77 111.375C286.379 110.125 286.047 108.914 285.773 107.742ZM285.773 86.6484H281.32C276.75 86.6484 273.098 86.9805 270.363 87.6445C267.668 88.2695 265.598 89.1289 264.152 90.2227C262.746 91.2773 261.809 92.5078 261.34 93.9141C260.91 95.3203 260.695 96.7852 260.695 98.3086C260.695 99.9492 260.93 101.414 261.398 102.703C261.867 103.992 262.512 105.105 263.332 106.043C264.191 106.941 265.207 107.625 266.379 108.094C267.551 108.562 268.82 108.797 270.188 108.797C271.242 108.797 272.316 108.68 273.41 108.445C274.543 108.172 275.734 107.723 276.984 107.098C278.273 106.434 279.621 105.555 281.027 104.461C282.473 103.367 284.055 101.961 285.773 100.242V86.6484ZM319.641 54.8906H328.312L330.07 73.5234C330.578 72.5469 331.105 71.5508 331.652 70.5352C332.238 69.4805 332.805 68.4648 333.352 67.4883C333.938 66.5117 334.504 65.5938 335.051 64.7344C335.598 63.875 336.086 63.1328 336.516 62.5078C337.375 61.2969 338.332 60.1641 339.387 59.1094C340.48 58.0156 341.652 57.0781 342.902 56.2969C344.152 55.4766 345.48 54.8516 346.887 54.4219C348.293 53.9531 349.797 53.7188 351.398 53.7188C352.531 53.7188 353.605 53.8555 354.621 54.1289C355.637 54.3633 356.477 54.7734 357.141 55.3594L355.969 65.7891C355.266 65.5938 354.562 65.4766 353.859 65.4375C353.195 65.3594 352.531 65.3203 351.867 65.3203C349.094 65.3203 346.672 65.7695 344.602 66.668C342.57 67.5664 340.734 68.7969 339.094 70.3594C337.492 71.8828 336.027 73.6797 334.699 75.75C333.41 77.8203 332.102 80.0469 330.773 82.4297V117H319.641V54.8906ZM377.59 63.7969H365.051L365.988 58.0547C369.035 57.4297 371.477 56.6484 373.312 55.7109C375.148 54.7344 376.652 53.5234 377.824 52.0781C379.035 50.6328 380.031 48.8945 380.812 46.8633C381.633 44.793 382.551 42.332 383.566 39.4805H388.723V54.8906H411.223L408.879 63.7969H388.723V98.4844C388.723 100.359 388.996 101.961 389.543 103.289C390.129 104.578 390.93 105.633 391.945 106.453C392.961 107.273 394.191 107.879 395.637 108.27C397.082 108.621 398.684 108.797 400.441 108.797C402.238 108.797 404.016 108.641 405.773 108.328C407.57 107.977 409.27 107.508 410.871 106.922V113.25C408.41 114.852 405.812 116.082 403.078 116.941C400.383 117.762 397.629 118.172 394.816 118.172C392.199 118.172 389.836 117.801 387.727 117.059C385.617 116.316 383.801 115.242 382.277 113.836C380.793 112.43 379.641 110.691 378.82 108.621C378 106.512 377.59 104.109 377.59 101.414V63.7969Z" fill="black"/>
<path fill-rule="evenodd" clip-rule="evenodd" d="M112.164 148C139.122 148 162.187 164.667 171.616 188.259C171.938 189.065 172.244 189.878 172.534 190.699H388.78C421.895 190.699 449.136 215.85 452.443 248.092C477.313 260.64 492.479 288.859 486.293 318.405L463.434 427.57C457.226 457.218 431.084 478.453 400.793 478.453H388.78H114.038H100C64.6538 478.453 36 449.8 36 414.453V224.699V222.259V212C36 203.612 37.6138 195.6 40.5479 188.259C49.9772 164.667 73.0422 148 100 148H112.164ZM418.78 276.113V275.288H135.828C121.523 275.288 109.208 285.388 106.408 299.416L84.6179 408.581C80.913 427.142 95.1107 444.453 114.038 444.453H388.78C389.674 444.453 390.559 444.414 391.433 444.338L391.414 444.453H400.793C414.992 444.453 427.246 434.499 430.156 420.602L453.014 311.437C456.917 292.799 442.693 275.288 423.651 275.288H418.914L418.78 276.113ZM388.78 224.699C400.528 224.699 410.699 231.452 415.622 241.288H135.828C105.311 241.288 79.0395 262.834 73.0659 292.76L70 308.12V232V224.699V222.259V220V208C70 187.565 86.5655 171 107 171C127.435 171 144 187.565 144 208V220V222.259V224.699H388.78ZM36.2348 190.699H36V196.22C36 194.36 36.0793 192.519 36.2348 190.699Z" fill="#373737"/>
</svg>
