<svg width="512" height="512" viewBox="0 0 512 512" fill="none" xmlns="http://www.w3.org/2000/svg">
<path d="M34.2578 117H22.7734V31.1602H46.2109C50.7422 31.1602 54.9414 31.7461 58.8086 32.918C62.7148 34.0508 66.0938 35.7305 68.9453 37.957C71.8359 40.1836 74.1016 42.957 75.7422 46.2773C77.3828 49.5586 78.2031 53.3672 78.2031 57.7031C78.2031 60.7891 77.793 63.6602 76.9727 66.3164C76.1523 68.9336 75 71.3164 73.5156 73.4648C72.0703 75.6133 70.3711 77.5273 68.418 79.207C66.4648 80.8477 64.3555 82.2344 62.0898 83.3672C59.8242 84.5 57.4609 85.3594 55 85.9453C52.5391 86.5312 50.0781 86.8242 47.6172 86.8242C47.1484 86.8242 46.6406 86.8242 46.0938 86.8242C45.5469 86.7852 44.8828 86.707 44.1016 86.5898L44.9219 77.8008C45.625 77.918 46.2305 77.9961 46.7383 78.0352C47.2461 78.0352 47.7539 78.0352 48.2617 78.0352C50.7617 78.0352 53.1055 77.6641 55.293 76.9219C57.5195 76.1406 59.4531 74.9688 61.0938 73.4062C62.7734 71.8438 64.082 69.8906 65.0195 67.5469C65.9961 65.1641 66.4844 62.3516 66.4844 59.1094C66.4844 55.7891 65.957 52.9375 64.9023 50.5547C63.8867 48.1719 62.4023 46.2188 60.4492 44.6953C58.5352 43.1719 56.1719 42.0586 53.3594 41.3555C50.5859 40.6133 47.4609 40.2422 43.9844 40.2422H34.2578V117ZM94.1992 54.8906H105.332V117H94.1992V54.8906ZM99.8242 41.4141C98.8477 41.4141 97.9297 41.2383 97.0703 40.8867C96.2109 40.5352 95.4688 40.0469 94.8438 39.4219C94.2188 38.7969 93.7305 38.0742 93.3789 37.2539C93.0273 36.3945 92.8516 35.457 92.8516 34.4414C92.8516 33.4258 93.0469 32.4687 93.4375 31.5703C93.8281 30.6719 94.3359 29.8906 94.9609 29.2266C95.625 28.5625 96.3867 28.0547 97.2461 27.7031C98.1445 27.3125 99.082 27.1172 100.059 27.1172C100.996 27.1172 101.875 27.3125 102.695 27.7031C103.555 28.0547 104.297 28.5625 104.922 29.2266C105.547 29.8906 106.035 30.6719 106.387 31.5703C106.738 32.4297 106.914 33.3477 106.914 34.3242C106.914 35.3789 106.719 36.3555 106.328 37.2539C105.938 38.1133 105.41 38.8555 104.746 39.4805C104.121 40.0664 103.379 40.5352 102.52 40.8867C101.66 41.2383 100.762 41.4141 99.8242 41.4141ZM118.75 117L142.188 84.832L120.684 54.8906H133.691L143.535 70.2422L148.105 78.7969H149.277L154.199 70.2422L164.746 54.8906H176.23L154.023 84.3047L178.164 117H165.156L153.438 99.5391L148.457 90.5156H147.285L142.305 99.3047L130.234 117H118.75ZM239.219 111.727C237.734 112.781 236.016 113.719 234.062 114.539C232.148 115.32 230.156 115.984 228.086 116.531C226.016 117.078 223.926 117.488 221.816 117.762C219.746 118.035 217.812 118.172 216.016 118.172C212.031 118.172 208.242 117.508 204.648 116.18C201.055 114.852 197.91 112.898 195.215 110.32C192.52 107.742 190.371 104.559 188.77 100.77C187.168 96.9414 186.367 92.5469 186.367 87.5859C186.367 82.4688 187.207 77.8203 188.887 73.6406C190.605 69.4609 192.891 65.9062 195.742 62.9766C198.594 60.0078 201.875 57.7227 205.586 56.1211C209.336 54.5195 213.262 53.7188 217.363 53.7188C220.684 53.7188 223.77 54.2852 226.621 55.418C229.512 56.5117 232.012 58.1719 234.121 60.3984C236.27 62.625 237.949 65.418 239.16 68.7773C240.371 72.0977 240.977 75.9844 240.977 80.4375C240.977 81.3359 240.938 82.4102 240.859 83.6602C240.781 84.9102 240.625 86.2188 240.391 87.5859H197.969C197.969 90.9453 198.555 93.9531 199.727 96.6094C200.938 99.2266 202.617 101.453 204.766 103.289C206.953 105.086 209.551 106.453 212.559 107.391C215.566 108.328 218.887 108.797 222.52 108.797C223.418 108.797 224.512 108.758 225.801 108.68C227.09 108.602 228.477 108.445 229.961 108.211C231.445 107.977 232.988 107.645 234.59 107.215C236.191 106.746 237.734 106.141 239.219 105.398V111.727ZM230.43 80.6719C230.43 77.7422 230.02 75.1641 229.199 72.9375C228.379 70.6719 227.266 68.7773 225.859 67.2539C224.453 65.7305 222.812 64.5781 220.938 63.7969C219.102 63.0156 217.129 62.625 215.02 62.625C212.676 62.625 210.469 63.1133 208.398 64.0898C206.328 65.0273 204.512 66.3164 202.949 67.957C201.426 69.5977 200.215 71.5117 199.316 73.6992C198.418 75.8867 197.969 78.2109 197.969 80.6719H230.43ZM258.32 23.1328H269.453V117H258.32V23.1328ZM366.777 93.6797H329.746L321.719 117H310.879L342.812 31.1602H355L386.992 117H374.922L366.777 93.6797ZM363.555 84.7148L352.188 51.1992L348.848 39.2461H347.676L344.336 51.1992L332.852 84.7148H363.555ZM401.992 54.8906H410.664L412.422 73.5234C412.93 72.5469 413.457 71.5508 414.004 70.5352C414.59 69.4805 415.156 68.4648 415.703 67.4883C416.289 66.5117 416.855 65.5938 417.402 64.7344C417.949 63.875 418.438 63.1328 418.867 62.5078C419.727 61.2969 420.684 60.1641 421.738 59.1094C422.832 58.0156 424.004 57.0781 425.254 56.2969C426.504 55.4766 427.832 54.8516 429.238 54.4219C430.645 53.9531 432.148 53.7188 433.75 53.7188C434.883 53.7188 435.957 53.8555 436.973 54.1289C437.988 54.3633 438.828 54.7734 439.492 55.3594L438.32 65.7891C437.617 65.5938 436.914 65.4766 436.211 65.4375C435.547 65.3594 434.883 65.3203 434.219 65.3203C431.445 65.3203 429.023 65.7695 426.953 66.668C424.922 67.5664 423.086 68.7969 421.445 70.3594C419.844 71.8828 418.379 73.6797 417.051 75.75C415.762 77.8203 414.453 80.0469 413.125 82.4297V117H401.992V54.8906ZM459.941 63.7969H447.402L448.34 58.0547C451.387 57.4297 453.828 56.6484 455.664 55.7109C457.5 54.7344 459.004 53.5234 460.176 52.0781C461.387 50.6328 462.383 48.8945 463.164 46.8633C463.984 44.793 464.902 42.332 465.918 39.4805H471.074V54.8906H493.574L491.23 63.7969H471.074V98.4844C471.074 100.359 471.348 101.961 471.895 103.289C472.48 104.578 473.281 105.633 474.297 106.453C475.312 107.273 476.543 107.879 477.988 108.27C479.434 108.621 481.035 108.797 482.793 108.797C484.59 108.797 486.367 108.641 488.125 108.328C489.922 107.977 491.621 107.508 493.223 106.922V113.25C490.762 114.852 488.164 116.082 485.43 116.941C482.734 117.762 479.98 118.172 477.168 118.172C474.551 118.172 472.188 117.801 470.078 117.059C467.969 116.316 466.152 115.242 464.629 113.836C463.145 112.43 461.992 110.691 461.172 108.621C460.352 106.512 459.941 104.109 459.941 101.414V63.7969Z" fill="black"/>
<path fill-rule="evenodd" clip-rule="evenodd" d="M112.164 148C139.122 148 162.187 164.667 171.616 188.259C171.938 189.065 172.244 189.878 172.534 190.699H388.78C421.895 190.699 449.136 215.85 452.443 248.092C477.313 260.64 492.479 288.859 486.293 318.405L463.434 427.57C457.226 457.218 431.084 478.453 400.793 478.453H388.78H114.038H100C64.6538 478.453 36 449.8 36 414.453V224.699V222.259V212C36 203.612 37.6138 195.6 40.5479 188.259C49.9772 164.667 73.0422 148 100 148H112.164ZM418.78 276.113V275.288H135.828C121.523 275.288 109.208 285.388 106.408 299.416L84.6179 408.581C80.913 427.142 95.1107 444.453 114.038 444.453H388.78C389.674 444.453 390.559 444.414 391.433 444.338L391.414 444.453H400.793C414.992 444.453 427.246 434.499 430.156 420.602L453.014 311.437C456.917 292.799 442.693 275.288 423.651 275.288H418.914L418.78 276.113ZM388.78 224.699C400.528 224.699 410.699 231.452 415.622 241.288H135.828C105.311 241.288 79.0395 262.834 73.0659 292.76L70 308.12V232V224.699V222.259V220V208C70 187.565 86.5655 171 107 171C127.435 171 144 187.565 144 208V220V222.259V224.699H388.78ZM36.2348 190.699H36V196.22C36 194.36 36.0793 192.519 36.2348 190.699Z" fill="#373737"/>
</svg>
